<?xml version="1.0" encoding="UTF-8" standalone="no"?>
<svg
   width="1470"
   height="807"
   viewBox="0 0 1470 807"
   fill="none"
   version="1.1"
   id="svg173"
   sodipodi:docname="banner-art-fundus.svg"
   inkscape:version="1.3.2 (091e20e, 2023-11-25)"
   xml:space="preserve"
   xmlns:inkscape="http://www.inkscape.org/namespaces/inkscape"
   xmlns:sodipodi="http://sodipodi.sourceforge.net/DTD/sodipodi-0.dtd"
   xmlns="http://www.w3.org/2000/svg"
   xmlns:svg="http://www.w3.org/2000/svg"><defs
     id="defs173"><inkscape:path-effect
       effect="spiro"
       id="path-effect182"
       is_visible="true"
       lpeversion="1" /><inkscape:path-effect
       effect="spiro"
       id="path-effect181"
       is_visible="true"
       lpeversion="1" /><inkscape:path-effect
       effect="spiro"
       id="path-effect180"
       is_visible="true"
       lpeversion="1" /><inkscape:path-effect
       effect="spiro"
       id="path-effect179"
       is_visible="true"
       lpeversion="1" /><inkscape:path-effect
       effect="spiro"
       id="path-effect178"
       is_visible="true"
       lpeversion="1" /><inkscape:path-effect
       effect="spiro"
       id="path-effect178-7"
       is_visible="true"
       lpeversion="1" /><inkscape:path-effect
       effect="spiro"
       id="path-effect179-5"
       is_visible="true"
       lpeversion="1" /><inkscape:path-effect
       effect="spiro"
       id="path-effect181-5"
       is_visible="true"
       lpeversion="1" /><inkscape:path-effect
       effect="spiro"
       id="path-effect182-4"
       is_visible="true"
       lpeversion="1" /></defs><sodipodi:namedview
     id="namedview173"
     pagecolor="#505050"
     bordercolor="#eeeeee"
     borderopacity="1"
     inkscape:showpageshadow="0"
     inkscape:pageopacity="0"
     inkscape:pagecheckerboard="0"
     inkscape:deskcolor="#d1d1d1"
     showgrid="false"
     inkscape:zoom="0.74402863"
     inkscape:cx="940.82401"
     inkscape:cy="119.61905"
     inkscape:window-width="2232"
     inkscape:window-height="1382"
     inkscape:window-x="211"
     inkscape:window-y="228"
     inkscape:window-maximized="0"
     inkscape:current-layer="svg173" /><path
     d="m 707.79514,630.408 v -50.66 c 0,-15.793 -12.802,-28.596 -28.595,-28.596 h -36.152 v 240.942 h 46.342 18.405 57.181 V 687.589 c 0,-15.793 -12.803,-28.596 -28.596,-28.596 -15.782,0.011 -28.585,-12.792 -28.585,-28.585 z"
     fill="#b6d5d0"
     id="path1"
     style="fill:#aaa9a9;fill-opacity:1" /><path
     d="m 1018.5151,731.837 -23.06896,22.529 -7.761,-11.54 -12.382,-18.416 29.66396,-13.785 8.096,12.684 z"
     fill="#e9928b"
     id="path2" /><path
     d="m 1013.0631,723.309 c -11.896,6.067 -21.02796,14.854 -25.37796,19.517 l -12.382,-18.416 29.66396,-13.785 z"
     fill="#de6667"
     id="path3" /><path
     d="M 1086.5771,55.9502 H 596.85714 V 311.303 h 489.71996 z"
     fill="#edf6f5"
     id="path4"
     style="fill:#efefef;fill-opacity:1" /><path
     d="m 796.25914,259.576 h -2.958 v -12.08 h 2.958 z m 0,-24.159 h -2.958 v -12.091 h 2.958 z m 0,-24.17 h -2.958 v -12.079 h 2.958 z m 0,-24.17 h -2.958 v -12.079 h 2.958 z m 0,-24.159 h -2.958 v -12.079 h 2.958 z"
     fill="#b6d5d0"
     id="path9"
     style="fill:#aaa9a9;fill-opacity:1" /><path
     d="m 1018.4621,285.049 h -12.101 v -2.958 h 12.101 z m -24.19096,0 h -12.101 v -2.958 h 12.101 z m -24.202,0 h -12.101 v -2.958 h 12.101 z m -24.192,0 h -12.101 v -2.958 h 12.101 z m -24.202,0 h -12.101 v -2.958 h 12.101 z m -24.191,0 h -12.101 v -2.958 h 12.101 z m -24.191,0 h -12.101 v -2.958 h 12.101 z m -24.203,0 h -12.101 v -2.958 h 12.101 z m -24.191,0 h -12.101 v -2.958 h 12.101 z"
     fill="#b6d5d0"
     id="path11"
     style="fill:#aaa9a9;fill-opacity:1" /><path
     d="m 1008.9876,142.87569 h -12.10103 v -2.958 h 12.10103 z m -24.19103,0 h -12.101 v -2.958 h 12.101 z m -24.202,0 h -12.101 v -2.958 h 12.101 z m -24.192,0 h -12.101 v -2.958 h 12.101 z m -24.202,0 h -12.101 v -2.958 h 12.101 z m -24.191,0 h -12.101 v -2.958 h 12.101 z m -24.191,0 h -12.101 v -2.958 h 12.101 z m -24.203,0 h -12.101 v -2.958 h 12.101 z m -24.191,0 h -12.101 v -2.958 h 12.101 z"
     fill="#b6d5d0"
     id="path11-4"
     style="fill:#aaa9a9;fill-opacity:1" /><path
     d="m 1037.9561,285.049 h -7.394 v -2.958 h 4.436 v -4.426 h 2.958 z"
     fill="#b6d5d0"
     id="path12"
     style="fill:#aaa9a9;fill-opacity:1" /><path
     d="m 1037.9561,265.576 h -2.958 v -12.08 h 2.958 z m 0,-24.159 h -2.958 v -12.091 h 2.958 z m 0,-24.17 h -2.958 v -12.079 h 2.958 z m 0,-24.17 h -2.958 v -12.079 h 2.958 z m 0,-24.159 h -2.958 v -12.079 h 2.958 z"
     fill="#b6d5d0"
     id="path13"
     style="fill:#aaa9a9;fill-opacity:1" /><path
     d="m 1078.8683,141.35993 h -4.4275 v -4.42096 h 1.771 v 2.64994 h 2.6565 z"
     fill="#b6d5d0"
     id="path10"
     style="stroke-width:0.598722;fill:#aaa9a9;fill-opacity:1" /><path
     d="M 1084.2137,165.33754 H 929.79022 c -2.42363,0 -4.38863,-1.96501 -4.38863,-4.38863 V 85.117207 c 0,-2.423626 1.965,-4.388631 4.38863,-4.388631 h 154.42348 c 2.4236,0 4.3887,1.965005 4.3887,4.388631 v 75.838283 c -0.01,2.41704 -1.9651,4.38205 -4.3887,4.38205 z"
     fill="#b2e5e0"
     id="path14"
     style="stroke-width:0.598722;fill:#91ceeb;fill-opacity:1" /><path
     d="M 1089.5268,170.65179 H 935.10327 c -2.42362,0 -4.38863,-1.965 -4.38863,-4.38863 V 90.424875 c 0,-2.423626 1.96501,-4.388631 4.38863,-4.388631 h 154.42353 c 2.4236,0 4.3886,1.965005 4.3886,4.388631 v 75.838285 c -0.01,2.42363 -1.965,4.38863 -4.3886,4.38863 z"
     fill="#3fb8a9"
     id="path15"
     style="stroke-width:0.598722;fill:#5eb8e7;fill-opacity:1" /><path
     opacity="0.67"
     d="m 942.36697,164.45203 h 138.71843 c 0,0 -4.6215,-32.3669 -11.9056,-42.2039 -7.2774,-9.837 -13.3784,3.73543 -21.4444,19.87397 -8.066,16.13196 -24.7925,23.41601 -36.9884,7.27746 -12.20257,-16.13195 -17.70902,-21.25103 -31.28802,-12.58992 -13.57901,8.66051 -24.20453,1.37646 -28.72847,-9.83699 -4.52454,-11.21346 -8.36354,-11.01948 -8.36354,-11.01948 z"
     fill="#ffffff"
     id="path16"
     style="stroke-width:0.598722" /><path
     opacity="0.28"
     d="m 942.36697,164.45263 c 0,0 6.39195,0.29696 11.51102,-6.78652 5.11847,-7.08347 6.49553,-17.90297 12.00198,-21.25043 5.50644,-3.34805 10.62551,0 18.29693,14.01847 7.67202,14.01848 19.674,7.42595 24.7925,-6.54103 5.119,-13.96638 7.478,-20.66249 15.9385,-21.44442 8.46,-0.78851 13.7724,9.64302 16.7265,19.674 2.9535,10.03697 10.6255,13.37844 18.297,9.24845 7.672,-4.12998 21.154,13.08806 21.154,13.08806 H 942.36697 Z"
     fill="#ffffff"
     id="path17"
     style="stroke-width:0.598722" /><path
     d="m 945.0235,98.244779 c -1.46747,0 -2.65653,-1.18966 -2.65653,-2.656528 0,-1.467467 1.18906,-2.656528 2.65653,-2.656528 1.46686,0 2.65652,1.189061 2.65652,2.656528 0,1.466868 -1.18966,2.656528 -2.65652,2.656528 z"
     fill="#ffffff"
     id="path18"
     style="stroke-width:0.598722" /><path
     d="m 1009.9585,94.012415 h -55.68595 v 3.14748 h 55.68595 z"
     fill="#ffffff"
     id="path19"
     style="stroke-width:0.598722" /><path
     d="m 945.0235,107.8357 c -1.46747,0 -2.65653,-1.18906 -2.65653,-2.65653 0,-1.46686 1.18906,-2.65593 2.65653,-2.65593 1.46686,0 2.65652,1.18907 2.65652,2.65593 0,1.46747 -1.18966,2.65653 -2.65652,2.65653 z"
     fill="#ffffff"
     id="path20"
     style="stroke-width:0.598722" /><path
     d="m 997.16797,103.60214 h -42.89542 v 3.14748 h 42.89542 z"
     fill="#ffffff"
     id="path21"
     style="stroke-width:0.598722" /><g
     id="g190"
     transform="translate(694.73655,41.38893)"><path
       d="m 515.927,78.8867 h -78.878 v 72.7463 h 78.878 z"
       fill="#dceceb"
       id="path5"
       style="fill:#cfcdc9;fill-opacity:1" /><path
       d="m 525.167,86.3486 h -78.878 v 72.7464 h 78.878 z"
       fill="#ffffff"
       id="path22" /><path
       d="m 515.927,118.538 -28.682,12.976 -28.671,-12.976 v 19.388 h 57.353 z"
       fill="#ffab40"
       id="path23" /><path
       d="m 515.927,109.783 h -57.353 v 5.182 l 28.671,12.684 28.682,-12.684 z"
       fill="#ffab40"
       id="path24" /></g><path
     d="m 1343.7362,248.39335 h -136.6956 v 85.35378 h 136.6956 z"
     fill="#dceceb"
     id="path28"
     style="stroke-width:2.09073;fill:#91ceeb;fill-opacity:1" /><path
     d="m 1095.9471,729.894 -25.357,23.652 -6.326,-28.348 -2.45,-10.967 30.301,-7.665 1.749,10.677 z"
     fill="#e9928b"
     id="path32" /><path
     d="m 1093.8641,717.241 c 0,0 -6.531,-0.68 -12.533,0.788 -4.404,1.079 -17.077,7.167 -17.077,7.167 l -2.451,-10.978 30.302,-7.664 z"
     fill="#de6667"
     id="path33" /><path
     d="m 1089.3731,727.304 c -12.835,-0.194 -17.434,10.331 -21.752,20.111 -4.317,9.78 -9.542,32.59 -17.023,34.9 -7.481,2.299 -11.507,6.326 -11.507,10.935 h 26.987 c 0,0 16.937,-18.621 25.648,-25.886 8.712,-7.265 10.828,-11.982 10.828,-11.982 0,0 -3.347,-17.995 -6.607,-25.465 0,-0.022 -2.299,-2.548 -6.574,-2.613 z"
     fill="#0c1b3c"
     id="path34" /><path
     d="m 1091.4991,746.066 c -9.359,1.943 -12.803,11.983 -18.557,28.672 -5.753,16.678 -17.163,18.502 -17.163,18.502 h 31.877 c 0,0 1.781,-6.131 5.57,-13.893 2.807,-5.754 7.643,-12.317 8.863,-18.319 2.871,-14.098 -8.312,-15.437 -10.59,-14.962 z"
     fill="#408c91"
     id="path35"
     style="fill:#3c4347;fill-opacity:1" /><path
     d="m 1093.7781,709.092 c -20.014,2.213 -34.058,8.874 -34.058,8.874 0,0 -6.812,2.213 -16.668,-18.524 -9.855,-20.759 -44.51796,-85.733 -44.51796,-85.733 l 39.85496,1.263 30.129,0.961 c 0,0 16.267,41.161 24.158,58.659 7.892,17.488 1.102,34.5 1.102,34.5 z"
     fill="#376f92"
     id="path36" /><path
     d="m 1059.7291,681.069 c -12.079,14.465 -8.031,31.294 0,36.897 0,0 -6.811,2.213 -16.667,-18.524 -9.856,-20.759 -44.51796,-85.733 -44.51796,-85.733 l 39.85496,1.263 26.015,11.55 c 0,0 -25.627,3.282 -31.38,16.765 -5.754,13.472 38.764,23.328 26.695,37.782 z"
     fill="#1b5175"
     id="path37" /><path
     d="m 354.162,796.489 c 0,0 0.12,-72.693 -79.48,-37.339 0,0 -17.5,-62.578 -63.33,-59.621 -45.85,2.958 -50.29,62.179 -50.29,62.179 0,0 -62.78,-31.91 -96.46,32.806 z"
     fill="#adccc7"
     id="path38"
     style="fill:#aaa9a9;fill-opacity:1" /><g
     id="g2"
     style="fill:#6e7274;fill-opacity:1"><path
       d="m 220.072,793.908 -1.95,-0.27 c 5.3,-37.858 -15.09,-65.007 -15.3,-65.277 l 1.57,-1.198 c 0.2,0.27 21.09,28.078 15.68,66.745 z"
       fill="#6eab9c"
       id="path39"
       style="fill:#6e7274;fill-opacity:1" /><path
       d="m 219.902,784.099 c -14.54,-0.907 -27.4,-18.114 -27.94,-18.848 l 1.59,-1.166 c 0.13,0.173 12.85,17.196 26.47,18.049 z"
       fill="#6eab9c"
       id="path41"
       style="fill:#6e7274;fill-opacity:1" /></g><g
     id="g1"
     style="fill:#6e7274;fill-opacity:1"><path
       d="m 266.532,793.652 2.65,-1.9 c 0.24,-0.183 25.45,-18.038 52.43,-19.301 l 0.09,1.965 c -21.12,0.982 -41.19,12.414 -48.49,17.023 l 26.18,-0.907 0.07,1.965 z"
       fill="#6eab9c"
       id="path42"
       style="fill:#6e7274;fill-opacity:1" /><path
       d="m 287.262,783.428 -1.87,-0.637 c 4.14,-12.08 12.89,-23.501 13.25,-23.986 l 1.57,1.198 c -0.09,0.119 -8.92,11.658 -12.95,23.425 z"
       fill="#6eab9c"
       id="path43"
       style="fill:#6e7274;fill-opacity:1" /></g><g
     id="g3"
     style="fill:#6e7274;fill-opacity:1"><path
       d="m 160.612,793.305 c -0.19,-0.162 -19.74,-16.581 -41.55,-24.234 l 0.65,-1.857 c 22.16,7.772 41.97,24.418 42.18,24.58 z"
       fill="#6eab9c"
       id="path44"
       style="fill:#6e7274;fill-opacity:1" /><path
       d="m 109.782,787.554 -0.9,-1.76 c 0.57,-0.291 14.35,-7.189 39.68,-3.659 l -0.27,1.954 c -24.67,-3.422 -38.38,3.4 -38.51,3.465 z"
       fill="#6eab9c"
       id="path45"
       style="fill:#6e7274;fill-opacity:1" /></g><g
     opacity="0.4"
     id="g47"
     transform="translate(186.67614)"><path
       opacity="0.4"
       d="m 764.792,636.855 -4.448,-2.472 c -2.817,-1.565 -4.555,-4.545 -4.501,-7.762 0.011,-0.367 0.022,-0.723 0.022,-1.09 0,-0.367 -0.011,-0.723 -0.022,-1.09 -0.054,-3.217 1.684,-6.196 4.501,-7.762 l 4.448,-2.472 c 3.519,-1.954 5.246,-6.045 4.221,-9.931 -0.022,-0.043 -0.022,-0.086 -0.043,-0.13 -1.037,-3.875 -4.599,-6.552 -8.604,-6.487 l -5.095,0.086 c -3.26,0.054 -6.24,-1.727 -7.837,-4.566 -0.324,-0.561 -0.648,-1.123 -0.961,-1.673 -1.684,-2.796 -1.738,-6.283 -0.054,-9.09 l 2.612,-4.339 c 2.073,-3.455 1.522,-7.87 -1.317,-10.709 -0.032,-0.032 -0.075,-0.075 -0.108,-0.108 -2.839,-2.839 -7.254,-3.389 -10.708,-1.317 l -4.34,2.613 c -2.806,1.684 -6.293,1.619 -9.089,-0.054 -0.55,-0.324 -1.112,-0.648 -1.673,-0.961 -2.839,-1.587 -4.631,-4.566 -4.566,-7.837 l 0.086,-5.095 c 0.065,-4.016 -2.612,-7.567 -6.488,-8.604 -0.043,-0.021 -0.086,-0.021 -0.129,-0.043 -3.886,-1.025 -7.978,0.702 -9.932,4.221 l -2.472,4.447 c -1.565,2.818 -4.544,4.556 -7.761,4.502 -0.367,-0.011 -0.723,-0.022 -1.09,-0.022 -0.367,0 -0.724,0.011 -1.091,0.022 -3.216,0.054 -6.196,-1.684 -7.761,-4.502 l -2.472,-4.447 c -1.954,-3.519 -6.045,-5.246 -9.931,-4.221 -0.044,0.022 -0.087,0.022 -0.13,0.043 -3.875,1.037 -6.552,4.599 -6.488,8.604 l 0.087,5.095 c 0.054,3.26 -1.728,6.239 -4.567,7.837 -0.561,0.324 -1.122,0.648 -1.673,0.961 -2.796,1.684 -6.282,1.738 -9.089,0.054 l -4.34,-2.613 c -3.454,-2.061 -7.869,-1.522 -10.708,1.317 -0.033,0.033 -0.076,0.076 -0.108,0.108 -2.839,2.839 -3.39,7.254 -1.317,10.709 l 2.612,4.339 c 1.684,2.807 1.62,6.294 -0.054,9.09 -0.324,0.55 -0.647,1.112 -0.96,1.673 -1.587,2.839 -4.567,4.631 -7.837,4.566 l -5.096,-0.086 c -4.015,-0.065 -7.567,2.612 -8.603,6.487 -0.022,0.044 -0.022,0.087 -0.043,0.13 -1.026,3.886 0.701,7.977 4.22,9.931 l 4.448,2.472 c 2.817,1.566 4.555,4.545 4.501,7.762 -0.01,0.367 -0.021,0.723 -0.021,1.09 0,0.367 0.011,0.723 0.021,1.09 0.054,3.217 -1.684,6.197 -4.501,7.762 l -4.448,2.472 c -3.519,1.954 -5.246,6.045 -4.22,9.931 0.021,0.043 0.021,0.087 0.043,0.13 1.036,3.875 4.598,6.552 8.603,6.487 l 5.096,-0.086 c 3.26,-0.054 6.239,1.727 7.837,4.566 0.323,0.562 0.647,1.123 0.96,1.674 1.684,2.795 1.738,6.282 0.054,9.089 l -2.612,4.339 c -2.062,3.455 -1.522,7.87 1.317,10.709 0.032,0.032 0.075,0.075 0.108,0.108 2.839,2.839 7.254,3.389 10.708,1.317 l 4.34,-2.612 c 2.807,-1.684 6.293,-1.62 9.089,0.053 0.551,0.324 1.112,0.648 1.673,0.961 2.839,1.587 4.631,4.566 4.567,7.837 l -0.087,5.095 c -0.064,4.016 2.613,7.568 6.488,8.604 0.043,0.021 0.086,0.022 0.13,0.043 3.886,1.026 7.977,-0.702 9.931,-4.221 l 2.472,-4.447 c 1.565,-2.818 4.545,-4.556 7.761,-4.502 0.367,0.011 0.724,0.022 1.091,0.022 0.367,0 0.723,-0.011 1.09,-0.022 3.217,-0.054 6.196,1.684 7.761,4.502 l 2.472,4.447 c 1.954,3.519 6.046,5.247 9.932,4.221 0.043,-0.021 0.086,-0.022 0.129,-0.043 3.876,-1.036 6.553,-4.599 6.488,-8.604 l -0.086,-5.095 c -0.054,-3.26 1.727,-6.239 4.566,-7.837 0.561,-0.324 1.123,-0.648 1.673,-0.961 2.796,-1.684 6.283,-1.737 9.089,-0.053 l 4.34,2.612 c 3.454,2.062 7.869,1.522 10.708,-1.317 0.033,-0.033 0.076,-0.076 0.108,-0.108 2.839,-2.839 3.39,-7.254 1.317,-10.709 l -2.612,-4.339 c -1.684,-2.807 -1.619,-6.294 0.054,-9.089 0.324,-0.551 0.648,-1.112 0.961,-1.674 1.587,-2.839 4.566,-4.631 7.837,-4.566 l 5.095,0.086 c 4.016,0.065 7.567,-2.612 8.604,-6.487 0.021,-0.043 0.021,-0.087 0.043,-0.13 1.025,-3.886 -0.702,-7.988 -4.221,-9.931 z m -75.37,38.084 c -27.289,0 -49.419,-22.118 -49.419,-49.419 0,-27.289 22.119,-49.419 49.419,-49.419 27.29,0 49.419,22.119 49.419,49.419 -0.011,27.301 -22.129,49.419 -49.419,49.419 z"
       fill="#f4d7c9"
       id="path46" /><path
       opacity="0.4"
       d="m 710.992,631.758 c 3.254,-11.88 -3.738,-24.148 -15.618,-27.402 -11.88,-3.255 -24.149,3.738 -27.403,15.618 -3.254,11.88 3.738,24.148 15.618,27.403 11.88,3.254 24.149,-3.739 27.403,-15.619 z"
       fill="#f4d7c9"
       id="path47" /></g><g
     opacity="0.4"
     id="g48"
     transform="translate(-490.79172)"><path
       opacity="0.4"
       d="m 1057.68,736.114 -2.59,-1.447 c -1.64,-0.917 -2.66,-2.655 -2.64,-4.533 0,-0.216 0.01,-0.421 0.01,-0.637 0,-0.216 0,-0.421 -0.01,-0.637 -0.03,-1.878 0.99,-3.616 2.64,-4.534 l 2.59,-1.447 c 2.05,-1.144 3.06,-3.529 2.46,-5.796 -0.01,-0.022 -0.01,-0.054 -0.02,-0.076 -0.61,-2.267 -2.68,-3.832 -5.02,-3.789 l -2.98,0.043 c -1.9,0.033 -3.65,-1.015 -4.58,-2.666 -0.18,-0.324 -0.38,-0.659 -0.56,-0.972 -0.98,-1.63 -1.01,-3.67 -0.03,-5.311 l 1.52,-2.536 c 1.21,-2.019 0.89,-4.588 -0.77,-6.251 -0.02,-0.021 -0.04,-0.043 -0.06,-0.064 -1.66,-1.663 -4.23,-1.976 -6.25,-0.767 l -2.54,1.522 c -1.64,0.982 -3.67,0.95 -5.31,-0.032 -0.32,-0.184 -0.65,-0.378 -0.97,-0.562 -1.66,-0.928 -2.7,-2.666 -2.67,-4.577 l 0.05,-2.979 c 0.04,-2.343 -1.53,-4.415 -3.79,-5.02 -0.02,-0.01 -0.06,-0.01 -0.08,-0.021 -2.26,-0.605 -4.66,0.41 -5.79,2.461 l -1.45,2.591 c -0.92,1.641 -2.66,2.655 -4.54,2.634 -0.21,0 -0.42,-0.011 -0.63,-0.011 -0.22,0 -0.42,0 -0.64,0.011 -1.88,0.032 -3.62,-0.983 -4.53,-2.634 l -1.45,-2.591 c -1.14,-2.051 -3.53,-3.066 -5.8,-2.461 -0.02,0.011 -0.05,0.011 -0.07,0.021 -2.268,0.605 -3.823,2.677 -3.791,5.02 l 0.044,2.979 c 0.032,1.9 -1.015,3.649 -2.667,4.577 -0.324,0.184 -0.658,0.378 -0.971,0.562 -1.63,0.982 -3.67,1.014 -5.311,0.032 l -2.537,-1.522 c -2.019,-1.209 -4.588,-0.885 -6.25,0.767 -0.022,0.021 -0.044,0.043 -0.065,0.064 -1.663,1.663 -1.976,4.232 -0.767,6.251 l 1.523,2.536 c 0.982,1.641 0.949,3.671 -0.033,5.311 -0.183,0.324 -0.378,0.648 -0.561,0.972 -0.929,1.662 -2.667,2.699 -4.577,2.666 l -2.98,-0.043 c -2.342,-0.043 -4.415,1.522 -5.019,3.789 -0.011,0.022 -0.011,0.054 -0.022,0.076 -0.604,2.267 0.41,4.663 2.461,5.796 l 2.591,1.447 c 1.641,0.918 2.656,2.656 2.634,4.534 0,0.216 -0.011,0.421 -0.011,0.637 0,0.216 0,0.421 0.011,0.637 0.033,1.878 -0.982,3.616 -2.634,4.533 l -2.591,1.447 c -2.051,1.144 -3.065,3.53 -2.461,5.797 0.011,0.021 0.011,0.054 0.022,0.075 0.604,2.267 2.677,3.822 5.019,3.789 l 2.98,-0.043 c 1.9,-0.032 3.648,1.015 4.577,2.667 0.183,0.323 0.378,0.658 0.561,0.971 0.982,1.63 1.015,3.67 0.033,5.311 l -1.523,2.537 c -1.209,2.019 -0.885,4.588 0.767,6.25 0.021,0.022 0.043,0.043 0.065,0.065 1.662,1.662 4.231,1.975 6.25,0.766 l 2.537,-1.522 c 1.641,-0.982 3.67,-0.95 5.311,0.033 0.324,0.183 0.647,0.377 0.971,0.561 1.663,0.928 2.699,2.666 2.667,4.577 l -0.044,2.979 c -0.043,2.343 1.523,4.416 3.791,5.02 0.02,0.011 0.05,0.011 0.07,0.022 2.27,0.604 4.67,-0.411 5.8,-2.462 l 1.45,-2.59 c 0.91,-1.641 2.65,-2.656 4.53,-2.634 0.22,0 0.42,0.011 0.64,0.011 0.21,0 0.42,0 0.63,-0.011 1.88,-0.033 3.62,0.982 4.54,2.634 l 1.45,2.59 c 1.14,2.051 3.53,3.066 5.79,2.462 0.02,-0.011 0.06,-0.011 0.08,-0.022 2.26,-0.604 3.82,-2.677 3.79,-5.02 l -0.05,-2.979 c -0.03,-1.9 1.02,-3.649 2.67,-4.577 0.32,-0.184 0.66,-0.378 0.97,-0.561 1.63,-0.983 3.67,-1.015 5.31,-0.033 l 2.54,1.522 c 2.02,1.209 4.59,0.886 6.25,-0.766 0.02,-0.022 0.04,-0.043 0.06,-0.065 1.67,-1.662 1.98,-4.231 0.77,-6.25 l -1.52,-2.537 c -0.98,-1.641 -0.95,-3.67 0.03,-5.311 0.18,-0.324 0.38,-0.648 0.56,-0.971 0.93,-1.663 2.67,-2.699 4.58,-2.667 l 2.98,0.043 c 2.34,0.044 4.41,-1.522 5.02,-3.789 0.01,-0.021 0.01,-0.054 0.02,-0.075 0.59,-2.267 -0.41,-4.664 -2.46,-5.797 z m -44,22.227 c -15.934,0 -28.845,-12.911 -28.845,-28.844 0,-15.934 12.911,-28.844 28.845,-28.844 15.93,0 28.84,12.91 28.84,28.844 0,15.933 -12.91,28.844 -28.84,28.844 z"
       fill="#f4d7c9"
       id="path48" /></g><path
     d="m 406.0757,109.783 h -130.67 v 45.004 h 23.29 l -12.15,28.617 43.43,-28.617 h 76.1 z"
     fill="#eb908b"
     id="path49"
     style="fill:#8f84ba;fill-opacity:1" /><path
     d="m 288.9857,122.932 h 101.59 v 4.965 h -101.59 z"
     fill="#ffffff"
     id="path50" /><path
     d="m 288.9857,136.727 h 101.59 v 4.965 h -101.59 z"
     fill="#ffffff"
     id="path51" /><path
     d="m 1110.5091,495.505 v -15.49 l -13.947,-3.606 -10.687,-12.738 2.785,-7.621 -85.129,-97.273 H 647.92714 c -3.487,0 -6.315,2.829 -6.315,6.315 v 11 l 0.086,0.065 c 0.216,1.77 0.939,3.552 2.256,5.117 l 94.336,112.439 c 6.855,8.161 16.97,12.889 27.635,12.889 h 334.71696 c 5.473,0 9.316,-4.145 9.867,-8.83 0.086,-0.734 0.086,-1.5 0,-2.267 z"
     fill="#b6d5d0"
     id="path53"
     style="fill:#aaa9a9;fill-opacity:1" /><path
     d="M 1100.6541,491.124 H 765.92614 c -10.665,0 -20.78,-4.718 -27.635,-12.889 l -94.347,-112.429 c -5.408,-6.444 -0.831,-16.279 7.589,-16.279 h 334.727 c 10.666,0 20.77996,4.718 27.63496,12.889 l 94.347,112.429 c 5.409,6.445 0.821,16.279 -7.588,16.279 z"
     fill="#ffffff"
     id="path54" /><path
     d="m 1058.9521,466.39 c -0.659,0 -1.274,-0.291 -1.695,-0.788 l -65.04996,-77.28 c -1.22,-1.447 -0.194,-3.649 1.695,-3.649 0.658,0 1.273,0.291 1.694,0.788 l 65.04996,77.28 c 1.22,1.436 0.195,3.649 -1.694,3.649 z"
     fill="#b2e5e0"
     id="path55"
     style="fill:#aaa9a9;fill-opacity:1" /><path
     d="m 804.54914,434.167 h -75.262 c -1.77,0 -3.454,-0.788 -4.588,-2.148 l -36.907,-44.281 c -1.253,-1.5 -0.184,-3.767 1.759,-3.767 h 75.262 c 1.77,0 3.454,0.788 4.588,2.148 l 36.908,44.28 c 1.252,1.501 0.183,3.768 -1.76,3.768 z"
     fill="#dceceb"
     id="path56"
     style="fill:#cfcdc9;fill-opacity:1" /><path
     d="m 768.00814,467.145 h -11.097 c -1.77,0 -3.444,-0.777 -4.577,-2.137 l -13.645,-16.289 c -1.252,-1.501 -0.194,-3.768 1.76,-3.768 h 11.097 c 1.77,0 3.443,0.777 4.577,2.138 l 13.645,16.289 c 1.252,1.49 0.194,3.767 -1.76,3.767 z"
     fill="#b2e5e0"
     id="path57"
     style="fill:#aaa9a9;fill-opacity:1" /><path
     d="m 800.09214,467.145 h -11.097 c -1.77,0 -3.444,-0.777 -4.577,-2.137 l -13.645,-16.289 c -1.252,-1.501 -0.194,-3.768 1.76,-3.768 h 11.097 c 1.77,0 3.443,0.777 4.577,2.138 l 13.645,16.289 c 1.252,1.49 0.194,3.767 -1.76,3.767 z"
     fill="#b2e5e0"
     id="path58"
     style="fill:#aaa9a9;fill-opacity:1" /><path
     d="m 832.17414,467.145 h -11.097 c -1.77,0 -3.443,-0.777 -4.577,-2.137 l -13.644,-16.289 c -1.253,-1.501 -0.195,-3.768 1.759,-3.768 h 11.097 c 1.771,0 3.444,0.777 4.577,2.138 l 13.645,16.289 c 1.252,1.49 0.194,3.767 -1.76,3.767 z"
     fill="#b2e5e0"
     id="path59"
     style="fill:#aaa9a9;fill-opacity:1" /><path
     d="m 891.80514,405.052 h -85.021 c -1.759,0 -3.433,-0.777 -4.566,-2.127 l -12.727,-15.166 c -1.252,-1.501 -0.194,-3.779 1.759,-3.779 h 85.021 c 1.759,0 3.433,0.778 4.566,2.127 l 12.727,15.167 c 1.253,1.5 0.195,3.778 -1.759,3.778 z"
     fill="#dceceb"
     id="path60"
     style="fill:#cfcdc9;fill-opacity:1" /><path
     d="m 917.83114,436.069 h -85.021 c -1.759,0 -3.433,-0.778 -4.566,-2.127 l -12.727,-15.167 c -1.252,-1.489 -0.195,-3.778 1.759,-3.778 h 85.021 c 1.759,0 3.433,0.777 4.566,2.127 l 12.727,15.166 c 1.252,1.501 0.184,3.779 -1.759,3.779 z"
     fill="#dceceb"
     id="path61"
     style="fill:#cfcdc9;fill-opacity:1" /><path
     d="m 943.91114,467.146 h -85.02 c -1.76,0 -3.433,-0.777 -4.567,-2.127 l -12.727,-15.167 c -1.252,-1.489 -0.194,-3.778 1.76,-3.778 h 85.02 c 1.76,0 3.433,0.777 4.567,2.127 l 12.727,15.167 c 1.252,1.5 0.194,3.778 -1.76,3.778 z"
     fill="#dceceb"
     id="path62"
     style="fill:#cfcdc9;fill-opacity:1" /><path
     d="m 981.38014,466.39 c -0.658,0 -1.274,-0.291 -1.695,-0.788 l -65.049,-77.28 c -1.22,-1.447 -0.195,-3.649 1.694,-3.649 0.659,0 1.274,0.291 1.695,0.788 l 65.05,77.28 c 1.22,1.436 0.194,3.649 -1.695,3.649 z"
     fill="#b2e5e0"
     id="path63"
     style="fill:#aaa9a9;fill-opacity:1" /><path
     d="m 933.31014,401.331 h -9.261 c -1.339,0 -3.325,-1.079 -4.448,-2.418 l -3.368,-4.005 c -1.123,-1.338 -0.95,-2.418 0.389,-2.418 h 9.262 c 1.338,0 3.324,1.08 4.447,2.418 l 3.368,4.005 c 1.123,1.339 0.95,2.418 -0.389,2.418 z"
     fill="#b2e5e0"
     id="path64"
     style="fill:#aaa9a9;fill-opacity:1" /><path
     d="m 933.94714,399.183 h -9.262 c -1.339,0 -3.325,-1.08 -4.448,-2.418 l -3.368,-4.005 c -1.122,-1.339 -0.95,-2.418 0.389,-2.418 h 9.262 c 1.338,0 3.325,1.079 4.447,2.418 l 3.368,4.005 c 1.123,1.338 0.939,2.418 -0.388,2.418 z"
     fill="#dceceb"
     id="path65"
     style="fill:#cfcdc9;fill-opacity:1" /><path
     d="m 1027.4861,421.4 h -9.262 c -1.338,0 -3.325,-1.08 -4.447,-2.419 l -3.368,-4.004 c -1.123,-1.339 -0.95,-2.418 0.388,-2.418 h 9.262 c 1.339,0 3.325,1.079 4.448,2.418 l 3.368,4.004 c 1.112,1.339 0.939,2.419 -0.389,2.419 z"
     fill="#b2e5e0"
     id="path66"
     style="fill:#aaa9a9;fill-opacity:1" /><path
     d="m 1028.1131,419.261 h -9.262 c -1.338,0 -3.325,-1.08 -4.447,-2.418 l -3.368,-4.005 c -1.123,-1.339 -0.95,-2.418 0.388,-2.418 h 9.262 c 1.339,0 3.325,1.079 4.448,2.418 l 3.368,4.005 c 1.123,1.328 0.95,2.418 -0.389,2.418 z"
     fill="#dceceb"
     id="path67"
     style="fill:#cfcdc9;fill-opacity:1" /><path
     d="m 1020.5121,466.39 c -0.658,0 -1.274,-0.291 -1.695,-0.788 l -65.04996,-77.28 c -1.219,-1.447 -0.194,-3.649 1.695,-3.649 0.659,0 1.274,0.291 1.695,0.788 l 65.04996,77.28 c 1.22,1.436 0.194,3.649 -1.695,3.649 z"
     fill="#b2e5e0"
     id="path68"
     style="fill:#aaa9a9;fill-opacity:1" /><path
     d="m 1011.2491,447.59 h -9.262 c -1.338,0 -3.32396,-1.08 -4.44696,-2.418 l -3.368,-4.005 c -1.123,-1.338 -0.95,-2.418 0.389,-2.418 h 9.26196 c 1.338,0 3.325,1.08 4.447,2.418 l 3.368,4.005 c 1.123,1.328 0.95,2.418 -0.389,2.418 z"
     fill="#b2e5e0"
     id="path69"
     style="fill:#aaa9a9;fill-opacity:1" /><path
     d="m 1011.8861,445.442 h -9.262 c -1.338,0 -3.32496,-1.08 -4.44696,-2.419 l -3.368,-4.004 c -1.123,-1.339 -0.95,-2.418 0.388,-2.418 h 9.26196 c 1.339,0 3.325,1.079 4.448,2.418 l 3.368,4.004 c 1.123,1.339 0.95,2.419 -0.389,2.419 z"
     fill="#dceceb"
     id="path70"
     style="fill:#cfcdc9;fill-opacity:1" /><path
     d="m 1121.3481,564.451 c 0,0 -5.365,16.624 -24.494,31.219 -9.251,7.07 -21.719,13.666 -38.365,17.682 -51.038,12.338 -91.90696,7.88 -94.86496,8.366 -2.634,0.431 22.82,40.664 37.14496,64.812 1.781,3.001 3.39,5.743 4.75,8.139 0.172,0.292 0.324,0.583 0.485,0.864 11.67,20.974 5.43,26.242 5.43,26.242 -11.83096,1.479 -28.09896,14.789 -28.09896,14.789 -24.644,6.413 -39.433,-32.039 -53.24,-48.307 -13.807,-16.268 -49.3,-64.575 -33.518,-90.698 15.771,-26.124 156.02896,-59.653 156.02896,-59.653 l 13.979,5.398 26.372,10.179 z"
     fill="#376f92"
     id="path71" /><path
     d="m 1005.5301,694.694 c 0.172,0.292 0.323,0.583 0.485,0.864 -0.194,-0.238 -0.356,-0.529 -0.485,-0.864 z"
     fill="#1b5175"
     id="path72" /><path
     d="m 1106.5581,582.158 c -0.076,0.184 -3.768,5.408 -9.705,13.526 -9.251,7.071 -21.719,13.666 -38.365,17.682 -51.038,12.339 -91.90696,7.88 -94.86496,8.366 -2.634,0.432 22.82,40.665 37.14496,64.813 -8.59296,-10.342 -22.17296,-11.702 -32.33096,-32.385 -12.327,-25.098 -41.409,0.95 -46.72,-19.755 -5.311,-20.704 15.178,-19.225 45.242,-32.535 30.074,-13.31 34.99696,-7.891 62.26396,-13.321 27.279,-5.43 22.994,-38.883 22.994,-38.883 l 14.357,-6.337 19.981,-2.58 c 0,0 2.839,5.635 6.391,12.76 5.958,11.939 13.871,28.023 13.612,28.649 z"
     fill="#1b5175"
     id="path73" /><path
     d="m 1018.5041,731.828 c 0,0 14.196,11.853 14.52,20.856 0.323,9.003 -29.881,39.509 -29.881,39.509 h -38.31096 c 0,0 -4.102,-6.283 6.499,-10.795 10.6,-4.501 11.658,-4.771 15.642,-9.014 3.972,-4.242 7.426,-15.641 13.78496,-27.57 6.358,-11.928 17.746,-12.986 17.746,-12.986 z"
     fill="#0c1b3c"
     id="path74" /><path
     d="m 1032.5601,267.345 c 0,0 -8.971,-5.516 -11.961,-11.724 -2.99,-6.207 -10.579,-19.776 -11.033,-22.993 -0.453,-3.216 5.981,0.227 9.662,6.672 0,0 -2.526,-6.898 -7.125,-15.869 -4.598,-8.97 -11.96,-14.487 -10.115,-18.859 1.836,-4.371 15.178,12.188 16.787,14.951 1.608,2.764 4.825,-0.226 8.97,1.836 4.134,2.072 4.134,-0.227 8.28,2.299 4.134,2.526 7.696,7.664 12.014,30.28 z"
     fill="#e9928b"
     id="path75" /><path
     d="m 926.85514,439.557 c 0,0 -4.858,-1.674 -13.072,-9.575 -8.205,-7.902 -13.073,-10.785 -15.804,-12.004 -2.731,-1.22 -7.146,-2.58 -11.702,-2.278 -4.555,0.302 -6.995,-1.824 -5.926,-3.346 1.069,-1.523 5.322,-2.58 5.322,-2.58 0,0 -8.356,0.755 -6.229,-3.045 2.127,-3.799 14.131,-2.277 14.131,-2.277 0,0 2.277,-2.883 5.472,-2.883 3.196,0 2.883,-2.58 9.273,-1.824 6.38,0.756 9.727,4.556 16.409,6.078 6.682,1.522 12.208,15.426 12.208,15.426 z"
     fill="#e9928b"
     id="path76" /><path
     d="m 936.90614,419.704 c 0,0 -10.741,9.489 -14.022,19.517 l -1.155,2.958 6.239,8.712 14.465,-27.603 z"
     fill="#93405e"
     id="path77" /><path
     d="m 1031.4161,275.928 -5.171,-8.129 c 0,0 10.104,-11.831 23.166,-15.285 l 3.217,5.667 z"
     fill="#93405e"
     id="path78" /><path
     d="m 1186.2671,380.887 -39.304,20.856 -5.84,3.098 c 0,0 -2.083,-1.047 -5.494,-2.828 -11.141,-5.851 -36.444,-19.625 -49.257,-30.69 -5.959,-5.139 -15.837,-17.466 -26.102,-31.23 -18.6,-24.925 -38.473,-54.536 -38.473,-54.536 14.292,-22.183 30.819,-29.578 30.819,-29.578 0,0 44.518,62.611 51.416,68.526 4.037,3.466 31.456,22.152 53.543,37.081 15.695,10.6 28.692,19.301 28.692,19.301 z"
     fill="#67A4C3"
     id="path79"
     style="fill:#f9f9f9" /><path
     d="m 1186.2681,380.886 -39.304,20.855 c -3.487,0.076 -7.341,0.173 -11.324,0.27 -11.14,-5.851 -36.443,-19.625 -49.257,-30.69 -5.959,-5.138 -15.836,-17.466 -26.102,-31.229 8.161,4.253 16.214,7.988 20.899,12.025 10.19,8.82 7.232,-1.975 52.592,4.264 8.96,1.231 16.884,3.055 23.825,5.182 15.674,10.622 28.671,19.323 28.671,19.323 z"
     fill="#4F91B3"
     id="path80"
     style="fill:#e6e6e6" /><path
     d="m 1154.8971,374.603 c 0,0 -34.014,20.867 -34.09,7.729 -0.022,-4.404 -0.821,-8.214 -1.868,-11.313 -2.072,-6.153 -5.127,-9.564 -5.127,-9.564 0,0 -0.011,0.011 -0.022,0.033 -12.144,12.943 -17.563,8.841 -19.042,6.379 -1.479,-2.461 -11.507,-23.165 -10.028,-30.074 1.479,-6.898 1.155,-11.011 -0.983,-15.286 -2.126,-4.264 0.983,-14.616 0.983,-14.616 l 28.93,-6.088 c 0,0 26.782,27.278 29.081,36.476 2.3,9.208 12.166,36.324 12.166,36.324 z"
     fill="#e9928b"
     id="path81" /><path
     d="m 1193.3461,463.994 c -8.871,26.621 -133.5691,155.90451 -158.8291,158.44151 -10.298,1.036 -53.5527,-47.81465 -65.6647,-56.14765 -17.595,-12.101 73.6598,-25.84386 73.6598,-25.84386 22.183,-15.728 19.225,-65.32 19.225,-65.32 0,0 0,0.011 -0.011,0.021 -0.485,0.4 -31.704,26.329 -52.635,28.769 -21.10396,2.461 -89.32796,-44.864 -89.32796,-44.864 0,0 15.285,-38.451 22.68,-36.972 7.394,1.479 56.198,33.032 64.55296,33.518 8.356,0.497 55.724,-41.906 67.512,-53.737 11.798,-11.831 58.205,-30.074 90.741,-30.56 0,0 21.201,3.454 28.597,19.225 7.38,15.793 8.38,46.85 -0.5,73.47 z"
     fill="#67A4C3"
     id="path82"
     style="fill:#f9f9f9"
     sodipodi:nodetypes="cccccccccccccc" /><path
     d="m 1098.8391,278.626 c -15.447,1.857 -30.117,13.3 -25.379,24.775 4.739,11.464 13.991,12.845 19.917,12.921 5.926,0.076 7.891,3.595 9.964,6.801 2.072,3.206 2.99,1.22 5.592,-3.973 2.601,-5.203 8.56,-1.479 8.711,5.527 0.151,7.006 -1.069,23.987 11.464,24.289 12.533,0.302 14.983,-4.89 15.448,-4.89 0.464,0 10.697,-20.942 9.942,-39.294 0,0 12.997,-6.725 10.546,-17.433 -2.45,-10.698 -16.516,-12.846 -24.925,-4.21 0,0 -7.038,0.377 -13.612,-4.048 -6.575,-4.437 -15.448,-6.574 -19.572,-3.973 -4.123,2.591 -4.274,3.044 -8.096,3.508 z"
     fill="#0c1b3c"
     id="path83" /><path
     d="m 1109.8621,631.133 h -13.202 v 150.005 h 13.202 z"
     fill="#f0d1aa"
     id="path84"
     style="fill:#cfcdc9;fill-opacity:1" /><path
     d="m 1109.8621,781.138 h -6.606 V 631.133 l 6.606,-0.41 z"
     fill="#edbf84"
     id="path85"
     style="fill:#aaa9a9;fill-opacity:1" /><path
     d="m 1155.5131,792.235 h -104.516 c 0,-3.066 1.241,-5.829 3.249,-7.837 2.008,-2.008 4.782,-3.25 7.848,-3.25 h 82.322 c 6.131,-0.01 11.097,4.955 11.097,11.087 z"
     fill="#edbf84"
     id="path86"
     style="fill:#aaa9a9;fill-opacity:1" /><path
     d="m 1122.1681,792.235 h -71.16 c 0,-3.066 1.241,-5.829 3.249,-7.837 2.008,-2.008 4.782,-3.25 7.848,-3.25 h 41.161 z"
     fill="#f0d1aa"
     id="path87"
     style="fill:#cfcdc9;fill-opacity:1" /><path
     d="m 1232.9561,473.742 c -0.94,0.432 -1.86,0.896 -2.75,1.392 -0.29,0.162 -0.59,0.324 -0.87,0.486 -0.29,0.162 -0.57,0.324 -0.85,0.497 -0.28,0.162 -0.56,0.334 -0.84,0.518 -0.26,0.162 -0.52,0.324 -0.77,0.486 -0.3,0.194 -0.59,0.388 -0.87,0.593 -0.27,0.184 -0.54,0.367 -0.81,0.562 -0.27,0.194 -0.54,0.388 -0.8,0.583 -0.89,0.658 -1.76,1.349 -2.61,2.061 -0.32,0.26 -0.62,0.519 -0.92,0.789 -1.08,0.95 -2.13,1.943 -3.13,2.979 l -0.03,0.032 c -0.41,0.421 -0.82,0.853 -1.23,1.296 -0.06,0.065 -0.12,0.14 -0.19,0.205 -0.4,0.432 -0.79,0.874 -1.17,1.328 -0.44,0.496 -0.85,0.993 -1.26,1.5 -0.02,0.032 -0.05,0.065 -0.07,0.097 -0.39,0.475 -0.77,0.961 -1.14,1.447 -0.39,0.507 -0.78,1.025 -1.16,1.554 -0.02,0.033 -0.04,0.054 -0.07,0.087 -0.37,0.518 -0.74,1.036 -1.1,1.565 -0.39,0.55 -0.75,1.101 -1.12,1.662 0,0 0,0.011 -0.01,0.011 -0.32,0.497 -0.64,0.993 -0.95,1.5 -0.09,0.141 -0.17,0.281 -0.26,0.421 -0.08,0.119 -0.16,0.249 -0.24,0.378 -0.58,0.95 -1.14,1.911 -1.69,2.893 -0.67,1.188 -1.33,2.408 -1.95,3.638 -0.32,0.616 -0.63,1.242 -0.93,1.868 -0.32,0.626 -0.62,1.252 -0.91,1.889 -0.59,1.274 -1.18,2.558 -1.74,3.864 -0.28,0.648 -0.56,1.307 -0.83,1.965 -0.28,0.659 -0.55,1.328 -0.81,1.986 -0.24,0.572 -0.45,1.145 -0.68,1.728 -0.29,0.766 -0.58,1.532 -0.87,2.31 -0.26,0.68 -0.5,1.349 -0.75,2.04 -0.03,0.075 -0.05,0.162 -0.09,0.237 -0.21,0.605 -0.43,1.209 -0.63,1.814 -0.49,1.403 -0.97,2.817 -1.44,4.242 -0.21,0.659 -0.43,1.328 -0.63,1.987 -0.22,0.701 -0.44,1.392 -0.66,2.094 -0.41,1.327 -0.81,2.644 -1.2,3.972 -0.02,0.076 -0.04,0.162 -0.07,0.238 -0.21,0.701 -0.41,1.414 -0.61,2.116 -0.01,0.01 -0.01,0.021 -0.01,0.032 -0.2,0.691 -0.4,1.392 -0.6,2.083 -0.26,0.896 -0.49,1.792 -0.74,2.688 -0.14,0.508 -0.28,1.026 -0.41,1.533 -0.08,0.281 -0.15,0.572 -0.24,0.853 -0.5,1.824 -0.97,3.649 -1.45,5.462 -0.46,1.77 -0.91,3.53 -1.366,5.268 -0.195,0.745 -0.389,1.479 -0.572,2.224 -0.594,2.321 -1.188,4.62 -1.771,6.876 -0.183,0.659 -0.345,1.328 -0.518,1.986 -0.313,1.199 -0.637,2.386 -0.95,3.552 -0.194,0.723 -0.388,1.457 -0.594,2.17 -0.712,2.58 -1.425,5.084 -2.169,7.513 -0.162,0.55 -0.335,1.101 -0.497,1.641 -0.119,0.388 -0.248,0.766 -0.367,1.155 -0.097,0.324 -0.205,0.658 -0.313,0.971 -0.345,1.058 -0.691,2.105 -1.058,3.12 -0.378,1.101 -0.766,2.17 -1.166,3.217 -0.021,0.054 -0.043,0.108 -0.054,0.162 -0.183,0.475 -0.367,0.928 -0.55,1.392 -0.162,0.4 -0.324,0.799 -0.486,1.188 -0.043,0.097 -0.086,0.216 -0.13,0.313 -0.183,0.453 -0.388,0.896 -0.582,1.349 -0.011,0.033 -0.033,0.076 -0.054,0.108 -0.216,0.475 -0.432,0.95 -0.648,1.414 -0.216,0.464 -0.432,0.918 -0.659,1.36 -0.162,0.335 -0.324,0.659 -0.496,0.983 -0.076,0.151 -0.151,0.302 -0.238,0.442 -0.216,0.389 -0.421,0.767 -0.637,1.145 -0.097,0.183 -0.205,0.356 -0.302,0.529 -0.129,0.226 -0.27,0.453 -0.41,0.68 -18.535,30.161 -71.235,29.07 -71.235,29.07 h -77.41 c -18.168,0 -18.535,-18.535 2.18,-19.992 20.715,-1.457 61.056,-25.443 79.224,-78.133 8.808,-25.541 19.063,-40.751 27.3,-49.646 6.995,-7.567 16.905,-11.777 27.203,-11.777 h 73.995 c 1.23,0 1.59,1.652 0.49,2.159 z"
     fill="#f4c8af"
     id="path88"
     style="fill:#aaa9a9;fill-opacity:1" /><path
     d="m 1230.2061,475.135 c -0.29,0.162 -0.59,0.324 -0.87,0.486 -0.29,0.162 -0.57,0.323 -0.85,0.496 -0.28,0.162 -0.56,0.335 -0.84,0.518 -0.26,0.162 -0.51,0.324 -0.77,0.486 -0.3,0.194 -0.59,0.389 -0.87,0.594 -0.28,0.183 -0.55,0.367 -0.81,0.561 -0.27,0.194 -0.54,0.389 -0.8,0.583 -0.89,0.659 -1.76,1.349 -2.61,2.062 -0.32,0.259 -0.62,0.518 -0.92,0.788 -1.08,0.95 -2.13,1.943 -3.13,2.979 l -0.03,0.033 c -0.41,0.421 -0.82,0.852 -1.23,1.295 -0.06,0.065 -0.12,0.14 -0.19,0.205 -0.4,0.432 -0.79,0.874 -1.17,1.328 -0.44,0.496 -0.85,0.993 -1.26,1.5 -0.02,0.033 -0.05,0.065 -0.07,0.097 -0.38,0.475 -0.77,0.961 -1.14,1.447 -0.38,0.518 -0.78,1.036 -1.16,1.555 -0.02,0.032 -0.04,0.054 -0.07,0.086 -0.36,0.518 -0.74,1.036 -1.1,1.565 -0.38,0.551 -0.74,1.101 -1.12,1.663 0,0 0,0.01 -0.01,0.01 -0.31,0.497 -0.64,0.993 -0.95,1.501 -0.09,0.14 -0.17,0.28 -0.26,0.421 -0.08,0.119 -0.15,0.248 -0.23,0.378 h -0.01 c -0.58,0.95 -1.14,1.91 -1.69,2.893 -0.67,1.187 -1.33,2.407 -1.95,3.638 -0.32,0.615 -0.63,1.23 -0.93,1.867 -0.31,0.626 -0.62,1.252 -0.91,1.889 -0.59,1.274 -1.18,2.559 -1.74,3.865 -0.28,0.647 -0.56,1.306 -0.83,1.964 -0.28,0.659 -0.55,1.328 -0.81,1.987 -0.24,0.572 -0.45,1.144 -0.68,1.727 -0.29,0.766 -0.58,1.533 -0.87,2.31 -0.25,0.68 -0.5,1.349 -0.75,2.04 -0.03,0.076 -0.05,0.162 -0.09,0.238 -0.21,0.604 -0.43,1.209 -0.63,1.813 -0.49,1.404 -0.97,2.818 -1.44,4.243 -0.21,0.658 -0.42,1.327 -0.64,1.986 -0.21,0.702 -0.43,1.392 -0.65,2.094 -0.41,1.328 -0.81,2.656 -1.2,3.973 -0.02,0.075 -0.04,0.161 -0.07,0.237 -0.2,0.702 -0.41,1.414 -0.61,2.116 -0.01,0.011 -0.01,0.021 -0.01,0.032 -0.2,0.691 -0.39,1.382 -0.6,2.084 -0.26,0.896 -0.49,1.792 -0.74,2.688 -0.14,0.518 -0.28,1.025 -0.41,1.532 -0.08,0.281 -0.15,0.573 -0.24,0.853 -0.48,1.825 -0.97,3.649 -1.45,5.462 -0.46,1.771 -0.91,3.53 -1.366,5.268 -0.195,0.745 -0.378,1.49 -0.573,2.224 -0.593,2.321 -1.187,4.62 -1.77,6.876 -0.173,0.67 -0.345,1.328 -0.518,1.987 -0.313,1.198 -0.637,2.385 -0.95,3.551 -0.194,0.723 -0.389,1.457 -0.594,2.17 -0.712,2.58 -1.425,5.084 -2.169,7.513 -0.162,0.551 -0.335,1.101 -0.497,1.641 -0.119,0.389 -0.248,0.766 -0.367,1.155 -0.097,0.324 -0.205,0.659 -0.313,0.972 -0.345,1.058 -0.691,2.105 -1.058,3.119 -0.378,1.101 -0.766,2.17 -1.166,3.217 -0.021,0.054 -0.043,0.108 -0.054,0.162 -0.183,0.475 -0.367,0.928 -0.55,1.393 -0.162,0.399 -0.324,0.798 -0.486,1.187 -0.043,0.097 -0.087,0.216 -0.13,0.313 -0.183,0.454 -0.388,0.896 -0.583,1.35 -0.01,0.032 -0.032,0.075 -0.054,0.107 -0.215,0.475 -0.431,0.95 -0.647,1.415 -0.216,0.464 -0.432,0.917 -0.659,1.36 -0.162,0.334 -0.324,0.658 -0.496,0.982 -0.076,0.151 -0.151,0.302 -0.238,0.443 -0.216,0.388 -0.421,0.766 -0.637,1.144 -0.237,0.41 -0.475,0.81 -0.712,1.209 -18.535,30.161 -71.236,29.071 -71.236,29.071 h -72.509 c -5.17,-4.038 -2.655,-10.202 11.097,-11.173 20.716,-1.457 65.471,-30.701 83.65,-83.401 8.809,-25.541 19.064,-40.751 27.3,-49.646 6.995,-7.567 16.894,-11.777 27.203,-11.777 h 53.492 z"
     fill="#f7dfd3"
     id="path89"
     style="fill:#cfcdc9;fill-opacity:1" /><path
     d="m 1207.7261,497.782 c -0.58,0.95 -1.14,1.911 -1.69,2.893 -0.67,1.188 -1.33,2.408 -1.94,3.638 -0.33,0.615 -0.64,1.231 -0.94,1.868 -0.31,0.626 -0.62,1.252 -0.91,1.889 -0.59,1.274 -1.18,2.558 -1.74,3.864 -0.28,0.648 -0.56,1.307 -0.83,1.965 -0.28,0.659 -0.55,1.328 -0.81,1.986 -0.24,0.572 -0.45,1.145 -0.68,1.728 -0.29,0.766 -0.58,1.532 -0.87,2.31 -0.25,0.68 -0.5,1.349 -0.75,2.04 -0.03,0.075 -0.05,0.162 -0.09,0.237 -0.21,0.605 -0.43,1.209 -0.63,1.814 -0.49,1.403 -0.97,2.817 -1.44,4.242 -0.21,0.659 -0.42,1.328 -0.63,1.986 -0.22,0.702 -0.44,1.393 -0.66,2.095 -0.41,1.327 -0.81,2.655 -1.2,3.972 -0.02,0.076 -0.04,0.162 -0.07,0.238 -0.2,0.701 -0.41,1.414 -0.61,2.116 -0.01,0.01 -0.01,0.021 -0.01,0.032 -0.2,0.691 -0.39,1.382 -0.6,2.083 -0.26,0.896 -0.49,1.792 -0.74,2.688 -0.14,0.518 -0.28,1.026 -0.41,1.533 -0.08,0.281 -0.15,0.572 -0.24,0.853 -0.48,1.824 -0.97,3.649 -1.45,5.462 -0.46,1.77 -0.91,3.53 -1.366,5.268 -0.194,0.745 -0.378,1.49 -0.572,2.224 -0.594,2.321 -1.187,4.62 -1.77,6.876 -0.173,0.669 -0.346,1.328 -0.519,1.986 -0.313,1.199 -0.636,2.386 -0.949,3.552 -0.195,0.723 -0.389,1.457 -0.594,2.17 -0.713,2.58 -1.425,5.084 -2.17,7.513 -0.162,0.55 -0.335,1.101 -0.497,1.641 -0.118,0.388 -0.248,0.766 -0.367,1.155 -0.097,0.324 -0.205,0.658 -0.313,0.971 -0.345,1.058 -0.69,2.105 -1.058,3.12 -0.377,1.101 -0.766,2.17 -1.165,3.217 -0.022,0.054 -0.044,0.108 -0.054,0.162 -0.184,0.475 -0.367,0.928 -0.551,1.392 -0.162,0.4 -0.324,0.799 -0.486,1.188 -0.043,0.097 -0.086,0.216 -0.129,0.313 -0.184,0.453 -0.389,0.896 -0.583,1.349 -0.011,0.033 -0.033,0.076 -0.054,0.108 -0.216,0.475 -0.432,0.95 -0.648,1.414 -0.216,0.464 -0.432,0.918 -0.658,1.36 -0.162,0.335 -0.324,0.659 -0.497,0.983 -0.075,0.151 -0.151,0.302 -0.237,0.442 -0.216,0.389 -0.421,0.767 -0.637,1.145 -0.097,0.183 -0.205,0.356 -0.303,0.529 -0.129,0.226 -0.269,0.453 -0.41,0.68 -18.535,30.161 -71.235,29.07 -71.235,29.07 h -25.476 c 2.677,-0.162 52.172,-2.537 69.821,-76.525 11.939,-49.969 44.327,-52.938 63.417,-56.835 z"
     fill="#f4c8af"
     id="path90"
     style="fill:#aaa9a9;fill-opacity:1" /><path
     d="m 674.26714,630.408 v -50.66 c 0,-15.793 -12.803,-28.596 -28.596,-28.596 h -36.152 v 240.942 h 46.343 18.405 57.18 V 687.589 c 0,-15.793 -12.802,-28.596 -28.595,-28.596 -15.782,0.011 -28.585,-12.792 -28.585,-28.585 z"
     fill="#dceceb"
     id="path91"
     style="fill:#cfcdc9;fill-opacity:1" /><path
     d="m 1348.0394,730.912 c -11.032,-21.05 -24.332,-36.066 -45.965,-53.057 -21.622,-16.991 -49.958,-17.067 -61.52,-22.54 -11.572,-5.484 -11.863,9.694 -8.269,23.943 3.595,14.249 -7.319,79.861 58.401,100.716 65.708,20.867 65.503,-33.528 57.353,-49.062 z"
     fill="#f2d6c8"
     id="path92"
     style="fill:#cfcdc9;fill-opacity:1" /><path
     d="m 1306.5324,745.065 c -0.485,0 -0.906,-0.356 -0.971,-0.852 -3.152,-23.231 8.366,-46.181 8.485,-46.407 0.248,-0.486 0.842,-0.681 1.327,-0.432 0.486,0.248 0.681,0.842 0.432,1.328 -0.118,0.226 -11.345,22.647 -8.29,45.241 0.075,0.54 -0.302,1.036 -0.842,1.112 -0.054,0.01 -0.097,0.01 -0.141,0.01 z"
     fill="#f5b89b"
     id="path93"
     style="fill:#aaa9a9;fill-opacity:1" /><path
     d="m 1306.7054,747.665 c -0.151,0 -0.313,-0.032 -0.453,-0.108 -19.582,-10.287 -53.619,-6.606 -53.964,-6.563 -0.54,0.054 -1.026,-0.324 -1.09,-0.874 -0.065,-0.54 0.324,-1.026 0.874,-1.09 1.425,-0.162 34.986,-3.79 55.097,6.779 0.486,0.248 0.669,0.853 0.41,1.328 -0.183,0.334 -0.518,0.528 -0.874,0.528 z"
     fill="#f5b89b"
     id="path94"
     style="fill:#aaa9a9;fill-opacity:1" /><path
     d="m 1312.8474,766.556 c -0.442,0 -0.853,-0.303 -0.961,-0.756 -14.109,-58.282 -70.037,-99.464 -70.598,-99.874 -0.443,-0.324 -0.54,-0.939 -0.216,-1.382 0.324,-0.443 0.939,-0.54 1.382,-0.216 0.572,0.41 57.072,42.025 71.354,101.008 0.129,0.529 -0.194,1.058 -0.723,1.187 -0.076,0.022 -0.162,0.033 -0.238,0.033 z"
     fill="#f5b89b"
     id="path95"
     style="fill:#aaa9a9;fill-opacity:1" /><path
     d="m 1286.4324,711.892 c -0.216,0 -0.431,-0.076 -0.615,-0.216 -12.77,-10.223 -43.633,-7.556 -43.935,-7.524 -0.551,0.065 -1.026,-0.356 -1.069,-0.896 -0.054,-0.54 0.346,-1.025 0.896,-1.069 1.296,-0.118 31.953,-2.763 45.35,7.945 0.421,0.346 0.496,0.961 0.151,1.382 -0.195,0.249 -0.486,0.378 -0.778,0.378 z"
     fill="#f5b89b"
     id="path96"
     style="fill:#aaa9a9;fill-opacity:1" /><path
     d="m 1276.1884,698.905 c -0.389,0 -0.745,-0.227 -0.907,-0.605 -4.005,-9.521 -1.889,-25.616 -1.803,-26.296 0.076,-0.54 0.551,-0.918 1.112,-0.842 0.54,0.076 0.917,0.572 0.842,1.112 -0.022,0.162 -2.127,16.246 1.662,25.26 0.216,0.496 -0.021,1.079 -0.529,1.295 -0.118,0.043 -0.248,0.076 -0.377,0.076 z"
     fill="#f5b89b"
     id="path97"
     style="fill:#aaa9a9;fill-opacity:1" /><path
     d="m 1176.1964,791.805 c -1.878,-19.69 15.955,-49.333 73.2,-30.053 0,0 14.465,-45.188 54.233,-43.687 39.769,1.511 52.42,38.699 52.42,38.699 0,0 53.424,-6.455 61.056,38.733 0,0 -238.2,24.752 -240.909,-3.692 z"
     fill="#adccc7"
     id="path128"
     style="fill:#aaa9a9;fill-opacity:1" /><g
     id="g4"
     style="fill:#7d7f80;fill-opacity:1"><path
       d="m 1294.9304,795.195 -1.944,-0.313 c 5.16,-32.007 -14.681,-54.978 -14.886,-55.205 l 1.479,-1.306 c 0.205,0.248 20.651,23.911 15.351,56.824 z"
       fill="#6eab9c"
       id="path129"
       style="fill:#7d7f80;fill-opacity:1" /><path
       d="m 1295.5874,775.592 -1.511,-1.274 c 0.183,-0.216 18.319,-21.903 21.406,-35.515 l 1.922,0.432 c -3.196,14.087 -21.061,35.461 -21.817,36.357 z"
       fill="#6eab9c"
       id="path130"
       style="fill:#7d7f80;fill-opacity:1" /><path
       d="m 1294.7454,786.981 c -14.162,-0.767 -26.717,-15.372 -27.235,-15.998 l 1.5,-1.274 c 0.119,0.151 12.533,14.584 25.843,15.307 z"
       fill="#6eab9c"
       id="path131"
       style="fill:#7d7f80;fill-opacity:1" /><path
       d="m 1339.4364,796.244 -1.285,-1.49 c 1.026,-0.885 25.228,-21.676 37.815,-22.032 l 0.054,1.975 c -11.896,0.324 -36.347,21.331 -36.584,21.547 z"
       fill="#6eab9c"
       id="path132"
       style="fill:#7d7f80;fill-opacity:1" /><path
       d="m 1386.7724,792.173 c -0.194,-0.011 -19.485,-1.187 -35.094,-5.213 l 0.497,-1.911 c 15.425,3.983 34.532,5.138 34.716,5.16 z"
       fill="#6eab9c"
       id="path133"
       style="fill:#7d7f80;fill-opacity:1" /><path
       d="m 1243.0064,795.057 c -12.749,-10.601 -39.628,-19.064 -39.898,-19.15 l 0.583,-1.879 c 1.122,0.346 27.527,8.669 40.578,19.517 z"
       fill="#6eab9c"
       id="path134"
       style="fill:#7d7f80;fill-opacity:1" /><path
       d="m 1233.0864,786.863 -1.976,-0.054 c 0.313,-10.752 -4.372,-19.204 -4.415,-19.291 l 1.716,-0.971 c 0.216,0.367 5.009,8.992 4.675,20.316 z"
       fill="#6eab9c"
       id="path135"
       style="fill:#7d7f80;fill-opacity:1" /></g><path
     d="m 1011.8871,792.192 h -18.72896 c 0,0 15.10196,-7.568 20.04596,-23.08 3.562,-11.183 9.392,-21.913 16.635,-19.258 7.243,2.656 1.274,14.973 -2.569,21.914 -5.495,9.899 -15.383,20.424 -15.383,20.424 z"
     fill="#408c91"
     id="path151"
     style="fill:#3c4347;fill-opacity:1" /><path
     d="m 648.19714,551.154 h -2.958 V 431.406 c 0,-10.179 8.28,-18.459 18.46,-18.459 h 12.209 v 2.958 h -12.209 c -8.55,0 -15.502,6.952 -15.502,15.501 z"
     fill="#3fb8a9"
     id="path152"
     style="fill:#3c4347;fill-opacity:1" /><path
     d="m 660.13614,552.397 h -2.958 V 432.649 c 0,-4.749 3.865,-8.603 8.604,-8.603 h 21.471 v 2.958 h -21.471 c -3.12,0 -5.646,2.536 -5.646,5.645 z"
     fill="#3fb8a9"
     id="path153"
     style="fill:#3c4347;fill-opacity:1" /><path
     d="m 1067.1253,560.11115 c 0.443,1.198 -78.25133,19.44081 -86.03816,14.32511 -8.44777,-5.80964 -18.62392,-9.26606 -12.40368,-15.33467 9.28024,-9.05401 72.96014,-18.2213 72.96014,-18.2213 22.183,-15.728 20.0945,-65.75429 20.0945,-65.75429 0,0 25.033,-21.859 28.487,-16.57 3.455,5.289 -8.873,35.602 0,48.048 8.863,12.446 -30.4188,33.35315 -23.0998,53.50715 z"
     fill="#4F91B3"
     id="path154"
     style="fill:#e6e6e6"
     sodipodi:nodetypes="ccsccccc" /><path
     d="m 1118.9401,371.019 c -2.072,-6.153 -5.127,-9.564 -5.127,-9.564 0,0 4.49,-5.56 5.138,-12.479 0,0 5.98,13.806 -0.011,22.043 z"
     fill="#de6667"
     id="path155" /><path
     d="M 982.93367,186.33268 H 847.42313 v 8.75447 h 135.51054 z"
     fill="#ffffff"
     id="path157"
     style="stroke-width:1.2215" /><path
     d="M 982.93367,212.20278 H 847.42191 v 8.7557 h 135.51176 z"
     fill="#ffffff"
     id="path158"
     style="stroke-width:1.2215" /><path
     d="m 922.41089,237.83714 h -74.98898 v 8.75447 h 74.98898 z"
     fill="#ffffff"
     id="path159"
     style="stroke-width:1.2215" /><path
     d="m -201.85213,286.45036 h -97.963 v 45.026 h 97.963 z"
     fill="#b2d3e4"
     id="path164" /><path
     d="m 659.73714,619.753 c 0,2.59 -2.105,4.695 -4.696,4.695 -2.591,0 -4.696,-2.105 -4.696,-4.695 0,-2.591 2.105,-4.696 4.696,-4.696 2.601,0 4.696,2.105 4.696,4.696 z"
     fill="#b6d5d0"
     id="path169"
     style="fill:#aaa9a9;fill-opacity:1" /><path
     d="m 655.05214,602.365 c 2.593,0 4.696,-2.102 4.696,-4.696 0,-2.593 -2.103,-4.695 -4.696,-4.695 -2.593,0 -4.696,2.102 -4.696,4.695 0,2.594 2.103,4.696 4.696,4.696 z"
     fill="#b6d5d0"
     id="path170"
     style="fill:#aaa9a9;fill-opacity:1" /><path
     d="m 655.05214,580.279 c 2.594,0 4.696,-2.102 4.696,-4.696 0,-2.593 -2.102,-4.695 -4.696,-4.695 -2.593,0 -4.695,2.102 -4.695,4.695 0,2.594 2.102,4.696 4.695,4.696 z"
     fill="#b6d5d0"
     id="path171"
     style="fill:#aaa9a9;fill-opacity:1" /><path
     d="m 1380.4628,86.942929 h -201.0442 c 0,0 13.8282,-30.852 45.7379,-18.081 0,0 11.7016,-31.91 39.3581,-28.186 27.6562,3.724 32.9782,22.982 32.9782,22.982 0,0 29.783,-11.82 58.508,12.123 0,0 23.404,-2.666 24.462,11.162 z"
     fill="#edf6f5"
     id="path172"
     style="fill:#cfcdc9;fill-opacity:1" /><path
     d="m 1118.9501,380.033 c 0,0 0.68,-4.081 4.318,-6.596 3.638,-2.515 26.966,-12.76 33.291,-1.609 z"
     fill="#93405e"
     id="path173" /><path
     d="m 146.8928,770.681 1.6,-1.166 c -0.19,-0.259 -18.81,-25.864 -21.98,-41.959 l -1.94,0.377 c 3.25,16.538 21.54,41.69 22.32,42.748 z"
     fill="#6eab9c"
     id="path40"
     style="fill:#aaa9a9;fill-opacity:1" /><path
     d="m 62.4428,376.522 c 1,1.306 2.17,2.288 3.45,2.99 10.66,5.862 29.8,-6.898 38.54,-6.488 9.8,0.475 14.47,13.3 37.57,4.2 23.09,-9.1 17.72,-45.015 16.32,-58.552 -1.4,-13.526 7,-20.294 21.46,-19.83 14.46,0.475 29.72,-7.459 23.14,-30.323 -6.58,-22.852 11.96,-34.846 23.04,-30.787 11.09,4.059 5.14,-15.393 5.14,-15.393 0,0 -9.47,-13.483 -28.18,-11.529 -5.86,0.615 -10.09,2.547 -13.32,5.224 0,0 -0.01,0 -0.02,0.022 -0.74,0.626 -1.44,1.296 -2.09,1.986 -0.01,0.022 -0.03,0.033 -0.04,0.054 -5.41,5.862 -7.53,14.055 -10.95,20.327 -5.6,10.266 -14.93,9.564 -29.4,5.138 -14.46,-4.436 -43.61,-2.385 -49.91,21.785 -6.3,24.169 10.49,52.398 -19.6,59.404 -30.08,6.973 -24.48,39.638 -15.15,51.772 z"
     fill="#0c1b3c"
     id="path98" /><path
     d="m 229.9728,220.408 c 0,0 -8.73,5.754 -7.73,17.423 0,0 -0.01,3.368 3.82,1.641 3.84,-1.727 6.95,-14.368 6.62,-17.088 -0.34,-2.731 -1.75,-2.299 -2.71,-1.976 z"
     fill="#3fb8a9"
     id="path99" /><path
     d="m 233.6528,272.481 c 13.37,11.658 19.94,10.849 23.83,5.128 1.46,-2.127 5.5,-7.406 10,-13.181 7.56,-9.726 16.4,-20.867 16.4,-20.867 0,0 14,-0.885 14.3,-11.712 0.05,-2.073 -0.34,-4.145 -1.17,-6.153 -3.45,-8.506 -14.4,-15.868 -29.63,-17.121 -18.82,-1.554 -35.92,7.783 -40.9,20.845 -4.95,13.051 -6.21,31.402 7.17,43.061 z"
     fill="#0c1b3c"
     id="path100" /><g
     opacity="0.52"
     id="g101"
     transform="matrix(-1,0,0,1,1482.6028,0)"><path
       opacity="0.52"
       d="m 1215.12,264.427 c -7.56,-9.727 -16.4,-20.867 -16.4,-20.867 0,0 -14,-0.885 -14.3,-11.712 -0.05,-2.073 0.34,-4.146 1.17,-6.153 2.78,-4.351 8.01,-8.097 17.8,-6.866 20.99,2.645 11.25,37.717 16.43,41.409 1.9,1.36 -0.67,2.85 -4.7,4.189 z"
       fill="#1b5175"
       id="path101" /></g><path
     d="m 341.8728,480.325 c 0,0 7.42,2.181 11.07,4.933 3.65,2.753 12.52,7.028 12.7,8.464 0.17,1.435 -7.45,-0.799 -10.45,-1.965 -3,-1.166 -2.53,1.706 1.21,5.246 3.73,3.541 5.25,5.095 9.55,8.366 4.31,3.282 4.81,4.75 3.15,5.344 -1.65,0.594 -3.18,-0.486 -3.18,-0.486 0,0 3.86,2.936 2.33,4.577 -1.53,1.641 -6.26,-1.846 -6.26,-1.846 0,0 1.34,2.364 -1.92,2.289 -3.26,-0.076 -4.38,-1.544 -8.23,-2.678 -3.85,-1.133 -15.47,-13.385 -18.17,-17.649 -2.7,-4.264 -4.06,-7.956 -4.06,-7.956 z"
     fill="#ffac95"
     id="path102" /><path
     d="m 261.8428,379.512 c 0,0 -7.11,35.536 10.27,55.431 17.38,19.895 57.02,56.285 57.02,56.285 l 14.58,-11.432 c 0,0 -35.7,-47.238 -40.6,-65.374 -1.05,-3.864 -2.02,-11.291 -2.02,-11.291 z"
     fill="#f5911f"
     id="path103" /><path
     d="m 119.6228,719.084 c -6.66,7.168 -20.8,34.155 -20.8,34.155 l 10.47,7.61 c 0,0 11.99,-18.017 14.48,-16.937 2.49,1.079 0.04,27.484 3.37,29.902 3.34,2.418 25.48,18.502 25.48,18.502 0,0 0.94,-9.305 -3.37,-17.898 -3.82,-7.599 -7.75,-23.273 2.24,-46.903 1.29,-3.066 2.81,-6.261 4.61,-9.586 l -23,-21.428 c 0,0 -2.84,6.391 -6.62,12.846 -2.09,3.584 -4.47,7.189 -6.86,9.737 z"
     fill="#1b5175"
     id="path105" /><path
     d="m 156.1028,717.94 -23,-21.427 c 0,0 -2.84,6.39 -6.62,12.845 l 25.01,18.158 c 1.29,-3.055 2.83,-6.251 4.61,-9.576 z"
     fill="#e9928b"
     id="path106" /><path
     d="m 114.4828,691.353 51.01,34.846 c 0,0 26.68,-32.806 50.35,-62.956 15.78,-20.132 30.22,-39.067 34.45,-46.299 8.54,-14.573 20.74,-72.175 25.11,-93.775 1.04,-5.139 1.64,-8.247 1.64,-8.247 l -6.25,-17.542 -12.13,-34.058 -0.9,-2.526 c 0,0 -8.75,-4.512 -18.5,-6.93 -2.59,-0.648 -5.27,-1.145 -7.85,-1.371 -7.95,-0.68 -15.2,1.209 -17.46,9.294 -0.13,0.475 -0.25,0.972 -0.35,1.49 -0.45,2.418 -0.95,5.516 -1.47,9.111 -4.39,30.614 -10.58,98.147 -12.52,105.736 -2.19,8.484 -85.13,113.227 -85.13,113.227 z"
     fill="#5f6386"
     id="path107" /><path
     d="m 215.8428,663.245 c 15.78,-20.133 30.22,-39.067 34.45,-46.299 8.54,-14.573 20.74,-72.175 25.11,-93.775 -1.21,-4.836 -2.14,-8.032 -2.6,-8.723 -2.62,-3.94 -60.68,-42.035 -60.68,-42.035 0,0 -2.42,34.058 9.09,55.788 11.51,21.741 21.36,37.674 12.16,61.088 -9.2,23.425 10.51,36.908 -5.26,50.045 -9.12,7.6 -11.71,17.186 -12.27,23.911 z"
     fill="#4a4e73"
     id="path108" /><path
     d="m 314.5528,752.465 c -1.17,9.715 3.24,39.865 3.24,39.865 h 12.95 c 0,0 -0.89,-21.622 1.77,-22.216 2.64,-0.593 16.18,22.216 20.3,22.216 4.13,0 31.49,0 31.49,0 0,0 -4.71,-8.085 -13.25,-12.5 -7.55,-3.908 -19.94,-14.282 -25.75,-39.261 -0.76,-3.239 -1.41,-6.725 -1.91,-10.46 l -31.19,-3.822 c 0,0 1.46,6.833 2.19,14.293 0.4,4.102 0.59,8.42 0.16,11.885 z"
     fill="#1b5175"
     id="path109" /><path
     d="m 343.3928,730.098 -31.19,-3.822 c 0,0 1.46,6.834 2.19,14.293 h 30.91 c -0.76,-3.249 -1.4,-6.725 -1.91,-10.471 z"
     fill="#e9928b"
     id="path110" /><path
     d="m 285.1228,446.507 c 0,0 44.78,105.131 57.85,148.667 13.06,43.546 32.96,137.472 32.96,137.472 h -68.43 c 0,0 -26.74,-127.519 -38.57,-148.051 -11.82,-20.532 -55.98,-95.179 -49.13,-121.928 6.85,-26.739 65.32,-16.16 65.32,-16.16 z"
     fill="#5f6386"
     id="path111" /><path
     d="m 212.1128,472.412 20.76,53.877 67.28,-42.726 -41.5,-20.219 -19.4,-9.456 -5.43,-2.656 -2.42,1.285 -17.46,9.294 c -0.13,0.475 -0.25,0.972 -0.35,1.49 -0.46,2.407 -0.95,5.505 -1.48,9.111 z"
     fill="#4a4e73"
     id="path112" /><path
     d="m 247.1728,304.716 c 0,0 16.17,6.801 29.86,25.465 13.69,18.664 29.86,53.359 31.1,59.955 1.24,6.595 -10.66,59.015 -10.62,72.541 0.04,13.526 -63.65,8.528 -81.69,-0.183 0,0 7.09,-49.581 7.09,-56.425 0,-6.844 -0.63,-52.873 3.11,-74.02 3.74,-21.148 21.15,-27.333 21.15,-27.333 z"
     fill="#ffab40"
     id="path113" /><path
     d="m 251.0428,353.486 c 0,0 2.56,17.024 0,29.837 -2.56,12.814 17.43,5.02 24.36,31.1 6.93,26.081 -52.4,13.429 -52.4,13.429 0,0 -16.35,-25.141 -16.47,-29.416 -0.12,-4.264 44.51,-44.95 44.51,-44.95 z"
     fill="#f5911f"
     id="path114" /><path
     d="m 247.1728,304.716 c 0,0 31.26,32.147 28.51,23.684 -1.51,-4.663 1.12,-15.814 3.8,-24.893 2.19,-7.416 4.4,-13.45 4.4,-13.45 0,0 -6.01,-6.11 -12.3,-11.324 -6.66,-5.527 -13.64,-10.039 -14.1,-5.16 -0.88,9.489 -10.31,31.143 -10.31,31.143 z"
     fill="#ffac95"
     id="path115" /><path
     d="m 1360.5642,257.8275 -0.2503,83.6287 -144.3074,-0.44046 0.2594,-83.62446 z"
     fill="#3fb8a9"
     id="path116"
     style="fill:#5eb8e7;fill-opacity:1" /><path
     d="m 1353.3364,264.62072 -0.2252,69.97102 -129.8769,-0.36852 0.2334,-69.96748 z"
     fill="#3fb8a9"
     id="path116-2"
     style="fill:#ffffff;stroke-width:0.867767" /><path
     d="m 287.8628,458.562 c 0,0 6.09,0.864 10.38,1.965 4.31,1.101 12.78,0.497 13.77,2.461 0.98,1.965 -9.52,3.692 -12.08,3.93 -2.56,0.237 6.4123,8.04697 10.1023,9.07197 3.69,1.026 4.1877,4.25666 0.3777,7.69966 -3.81,3.444 -9.72,2.64837 -12.17,3.01537 -2.46,0.367 -14.5,-8.733 -21.14,-15.491 -6.64,-6.758 10.76,-12.652 10.76,-12.652 z"
     fill="#ffac95"
     id="path121"
     sodipodi:nodetypes="cccccccsc" /><path
     d="m 246.5628,316.178 c 11.73,8.982 7.16,32.04 1.24,46.969 -5.91,14.929 -22.7,42.305 -21.46,44.788 1.24,2.494 63.49,49.721 63.49,49.721 l -12.79,16.063 c 0,0 -59.09,-29.708 -73.72,-40.276 -14.61,-10.579 -15.85,-22.086 -11.5,-37.015 4.35,-14.93 29.54,-99.529 54.74,-80.25 z"
     fill="#ffab40"
     id="path122" /><path
     d="m 331.8228,732.904 2.91,-0.507 c -0.94,-5.376 -23.07,-131.676 -26.95,-143.561 -3.88,-11.821 -34.32,-88.723 -35.61,-91.983 l -2.75,1.09 c 0.31,0.799 31.71,80.076 35.55,91.821 3.81,11.669 26.61,141.823 26.85,143.14 z"
     fill="#4a4e73"
     id="path123" /><path
     d="m 136.9628,706.845 c 0.46,-0.582 46.57,-58.389 70.73,-88.28 24.37,-30.161 33.39,-72.509 33.48,-72.93 l -2.89,-0.605 c -0.09,0.421 -8.97,42.079 -32.89,71.667 -24.16,29.891 -70.28,87.709 -70.74,88.292 z"
     fill="#4a4e73"
     id="path124" /><g
     opacity="0.52"
     id="g125"
     transform="matrix(-1,0,0,1,1482.6028,0)"><path
       opacity="0.52"
       d="m 1420.16,376.521 c -1,1.306 -2.17,2.289 -3.45,2.99 10.37,-12.349 2.76,-28.714 -23.86,-28.379 -26.62,0.324 -33.84,-22.68 -18.07,-60.797 15.77,-38.117 -23.99,-41.085 -40.75,-32.536 -16.77,8.55 -33.86,0.659 -33.2,-17.833 0.45,-12.371 -3.21,-18.891 -5.69,-21.86 5.41,5.862 7.53,14.055 10.95,20.327 5.6,10.266 14.93,9.564 29.39,5.139 14.47,-4.437 43.62,-2.386 49.92,21.784 6.3,24.169 -10.49,52.398 19.6,59.404 30.09,6.963 24.49,39.628 15.16,51.761 z"
       fill="#1b5175"
       id="path125" /></g><path
     d="m 262.7328,277.307 c 0,0 4.68,17.164 16.75,26.199 2.19,-7.416 4.4,-13.451 4.4,-13.451 0,0 -6.01,-6.109 -12.3,-11.323 z"
     fill="#e9928b"
     id="path126" /><path
     d="m 282.9528,232.834 c 0,0 8.4,20.834 16.33,24.882 7.93,4.048 2.64,4.976 0,9.488 -2.65,4.513 7.47,18.503 -1.24,24.883 -8.71,6.379 -28.93,-4.049 -35.3,-14.779 0,0 -11.04,0.465 -13.69,-7.934 -2.64,-8.398 5.91,-13.688 10.88,-9.953 4.98,3.735 5.6,-4.048 7.77,-15.706 2.19,-11.659 14.18,-13.364 15.25,-10.881 z"
     fill="#ffac95"
     id="path127" /><path
     d="m 248.5428,300.659 c 0,0 10.72,12.101 27.42,18.751 l 2.23,12.382 c 0,0 -15.62,-4.783 -31.02,-27.063 z"
     fill="#f5911f"
     id="path150" /><path
     d="m 1285.3754,302.69481 c 2.4667,-14.93584 -7.6119,-29.06725 -22.5638,-31.54234 -14.9528,-2.47814 -29.0604,7.62323 -31.5567,22.57173 -2.4667,14.93583 7.6426,29.05761 22.564,31.5423 14.9527,2.47816 29.0907,-7.63279 31.5565,-22.57169 z"
     fill="#3fb8a9"
     id="path120"
     style="stroke-width:3.19577;fill:#5eb8e7;fill-opacity:1" /><path
     d="m 1250.5001,300.50863 c 0.5888,-3.56557 -1.8171,-6.93915 -5.3866,-7.53001 -3.5696,-0.59161 -6.9375,1.81987 -7.5335,5.3885 -0.5888,3.56558 1.8245,6.93685 5.3866,7.53001 3.5697,0.59159 6.9448,-1.82215 7.5335,-5.3885 z"
     fill="#3fb8a9"
     id="path120-5"
     style="fill:#f9f9f9;stroke-width:0.762918" /><path
     style="fill:none;stroke:#f9f9f9;stroke-width:1px;stroke-linecap:butt;stroke-linejoin:miter;stroke-opacity:1"
     d="m 1162.0827,425.0013 c -0.4846,3.53345 0.6193,7.25456 2.9524,9.95215 2.333,2.69758 5.8561,4.32643 9.4225,4.35636 2.7176,0.0228 5.44,-0.83124 8.1211,-0.38672 1.4667,0.24317 2.8663,0.87934 4.0139,1.82444 1.1477,0.94509 2.0404,2.19677 2.5603,3.58959"
     id="path178"
     inkscape:path-effect="#path-effect178"
     inkscape:original-d="m 1162.0827,425.0013 c 4.125,5.02732 8.6367,9.66791 12.3749,14.30851 3.7383,4.6406 5.1563,-0.25781 8.1211,-0.38672 2.9648,-0.1289 4.3828,3.60936 6.5742,5.41403"
     transform="rotate(-17.479088,800.0613,104.27319)" /><path
     style="fill:none;stroke:#f9f9f9;stroke-width:1px;stroke-linecap:butt;stroke-linejoin:miter;stroke-opacity:1"
     d="m 1162.0827,418.42712 c 5.1521,-0.58783 10.0601,-3.11195 13.5351,-6.96089 1.0564,-1.17004 1.9828,-2.45456 3.0716,-3.5945 1.0887,-1.13994 2.3764,-2.15021 3.8893,-2.59296 1.9184,-0.56143 4.0248,-0.14408 5.8007,0.77343 2.0539,1.06117 3.7575,2.78744 4.7914,4.85523 1.0339,2.06779 1.3928,4.46641 1.0094,6.74626"
     id="path179"
     inkscape:path-effect="#path-effect179"
     inkscape:original-d="m 1162.0827,418.42712 c 4.3828,-2.19139 9.1523,-4.7695 13.5351,-6.96089 4.3828,-2.19139 4.7695,-3.99607 6.9609,-6.18746 2.1914,-2.1914 3.3515,0.38671 5.8007,0.77343 2.4492,0.38672 4.125,7.86323 5.8008,11.60149"
     transform="rotate(-17.479088,804.5663,90.263191)" /><path
     style="fill:none;stroke:#f9f9f9;stroke-width:1px;stroke-linecap:butt;stroke-linejoin:miter;stroke-opacity:1"
     d="m 1168.6569,437.76294 c -0.029,2.55106 0.9624,5.09947 2.707,6.9609 2.1412,2.28456 5.3993,3.46929 8.5078,3.09373"
     id="path181"
     inkscape:path-effect="#path-effect181"
     inkscape:original-d="m 1168.6569,437.76294 c 0.9023,1.80468 1.418,4.38279 2.707,6.9609 1.2891,2.57811 5.9297,2.06249 8.5078,3.09373"
     transform="rotate(-17.479088,800.0613,104.27319)" /><path
     style="fill:none;stroke:#f9f9f9;stroke-width:1px;stroke-linecap:butt;stroke-linejoin:miter;stroke-opacity:1"
     d="m 1176.0045,411.07951 c 0.9646,2.63205 2.9333,4.88197 5.414,6.18747 1.285,0.67624 2.6841,1.10092 4.0359,1.63132 1.3517,0.5304 2.6909,1.19025 3.6985,2.23584 1.1625,1.20635 1.8021,2.87825 1.8389,4.55315 0.037,1.6749 -0.5106,3.34239 -1.4522,4.72804 -1.4071,2.07069 -3.7096,3.50973 -6.1875,3.86717"
     id="path182"
     inkscape:path-effect="#path-effect182"
     inkscape:original-d="m 1176.0045,411.07951 c 1.2891,2.06249 3.3516,4.12498 5.414,6.18747 2.0625,2.06248 5.1563,2.5781 7.7344,3.86716 2.5781,1.28905 0.3867,6.31637 0.3867,9.28119 0,2.96483 -4.2539,2.44921 -6.1875,3.86717"
     transform="rotate(-17.479088,804.5663,90.263191)" /><path
     d="m 753.60208,158.00559 h -12.101 v -2.957 h 12.101 z m -24.191,0 h -12.101 v -2.957 h 12.101 z m -24.202,0 h -12.101 v -2.957 h 12.101 z m -24.192,0 h -12.101 v -2.957 h 12.101 z m -24.202,0 h -12.101 v -2.957 h 12.101 z m -24.191,0 h -12.101 v -2.957 h 12.101 z m -24.191,0 h -12.101 v -2.957 h 12.101 z m -24.203,0 h -12.101 v -2.957 h 12.101 z m -24.191,0 h -12.101 v -2.957 h 12.101 z"
     fill="#b6d5d0"
     id="path7"
     style="fill:#aaa9a9;fill-opacity:1" /><path
     d="m 531.39908,162.44259 h -2.958 v -7.394 h 7.395 v 2.957 h -4.437 z"
     fill="#b6d5d0"
     id="path8"
     style="fill:#aaa9a9;fill-opacity:1" /><path
     d="m 684.96808,150.70959 h -158.652 v -7.406 h 158.652 z m -157.659,-0.994 h 156.677 v -5.44 h -156.677 z"
     fill="#ffffff"
     id="path25" /><path
     d="m 684.96808,120.13559 h -158.652 v -7.4049 h 158.652 z m -157.659,-0.982 h 156.677 v -5.4405 h -156.677 z"
     fill="#ffffff"
     id="path26" /><path
     d="m 684.96908,89.578388 h -158.653 v -7.4053 h 158.653 z m -157.659,-0.9824 h 156.676 v -5.4406 h -156.676 z"
     fill="#ffffff"
     id="path27" /><path
     d="m 862.88808,167.95859 -347.045,5.915 -6.898,-5.915 V 53.921188 h 353.943 l 6.898,5.9155 z"
     fill="#b6d5d0"
     id="path136"
     style="fill:#aaa9a9;fill-opacity:1" /><path
     d="m 862.88908,48.874409 -347.045,0.362779 -6.898,-5.9156 v -25.627 h 353.943 l 6.898,5.91557 z"
     fill="#b6d5d0"
     id="path137"
     style="fill:#aaa9a9;fill-opacity:1"
     sodipodi:nodetypes="ccccccc" /><path
     d="m 869.78708,59.837188 h -353.943 V 173.87459 h 353.943 z"
     fill="#dceceb"
     id="path138"
     style="fill:#cfcdc9;fill-opacity:1" /><path
     d="m 869.78708,23.610608 h -353.943 v 25.63778 h 353.943 z"
     fill="#edf6f5"
     id="path139"
     style="fill:#cfcdc9;fill-opacity:1" /><path
     d="m 583.59208,41.215988 c 2.647,0 4.793,-2.1458 4.793,-4.7929 0,-2.647 -2.146,-4.793 -4.793,-4.793 -2.647,0 -4.793,2.146 -4.793,4.793 0,2.6471 2.146,4.7929 4.793,4.7929 z"
     fill="#67a4c3"
     id="path140"
     style="fill:#6cb6b0;fill-opacity:1" /><path
     d="m 565.82408,36.423088 c 0,2.6448 -2.148,4.7929 -4.793,4.7929 -2.644,0 -4.793,-2.1481 -4.793,-4.7929 0,-2.6447 2.149,-4.793 4.793,-4.793 2.656,0 4.793,2.1483 4.793,4.793 z"
     fill="#eb908b"
     id="path141"
     style="fill:#ffab40;fill-opacity:1" /><path
     d="m 538.47008,41.215988 c 2.647,0 4.793,-2.1458 4.793,-4.7929 0,-2.647 -2.146,-4.793 -4.793,-4.793 -2.647,0 -4.793,2.146 -4.793,4.793 0,2.6471 2.146,4.7929 4.793,4.7929 z"
     fill="#ffaa3f"
     id="path142"
     style="fill:#ff5555" /><path
     d="m 693.31208,82.173088 h -158.653 v 7.4053 h 158.653 z"
     fill="#ffffff"
     id="path147" /><path
     d="m 693.31208,112.73069 h -158.653 v 7.4049 h 158.653 z"
     fill="#ffffff"
     id="path148" /><path
     d="m 693.31208,143.30359 h -158.653 v 7.406 h 158.653 z"
     fill="#ffffff"
     id="path149" /><g
     id="g6"><path
       d="m 773.09608,162.44259 h -2.958 v -4.437 h -4.436 v -2.957 h 7.394 z"
       fill="#b6d5d0"
       id="path6"
       style="fill:#aaa9a9;fill-opacity:1" /><path
       d="m 802.63409,64.667895 c -25.92755,0 -46.92996,21.623631 -46.92996,48.292975 0,26.66913 21.01374,48.29361 46.92996,48.29361 25.92653,0 46.92894,-21.62448 46.92894,-48.29361 0,-26.669344 -21.00241,-48.292975 -46.92894,-48.292975 z m 0,79.378575 c -16.68904,0 -30.20795,-13.92348 -30.20795,-31.0856 0,-17.173141 13.53024,-31.085494 30.20795,-31.085494 16.67669,0 30.20693,13.923799 30.20693,31.085494 0,17.16212 -13.51891,31.0856 -30.20693,31.0856 z"
       fill="#b2e5e0"
       id="path143"
       style="fill:#91ceeb;fill-opacity:1;stroke-width:1.04479" /><path
       d="m 855.77661,124.27955 c 4.25148,-25.063942 -12.57048,-48.868639 -37.66131,-53.13432 -25.09243,-4.270814 -48.85726,12.589494 -53.15848,37.67447 -4.25149,25.06393 12.62197,48.85267 37.66148,53.13427 25.09226,4.27085 48.90825,-12.60533 53.15831,-37.67442 z"
       fill="#3fb8a9"
       id="path120-8"
       style="stroke-width:5.36675;fill:#5eb8e7;fill-opacity:1" /><path
       d="m 797.22594,120.35349 c 1.01489,-5.98342 -3.00084,-11.66629 -8.99081,-12.68461 -5.99018,-1.01957 -11.66356,3.00546 -12.69042,8.99395 -1.0149,5.98342 3.01319,11.66248 8.9908,12.68461 5.99035,1.01953 11.67575,-3.00924 12.69043,-8.99395 z"
       fill="#3fb8a9"
       id="path120-5-8"
       style="fill:#f9f9f9;stroke-width:1.28119" /><path
       style="fill:none;stroke:#f9f9f9;stroke-width:1px;stroke-linecap:butt;stroke-linejoin:miter;stroke-opacity:1"
       d="m 1162.0827,425.0013 c -0.4846,3.53345 0.6193,7.25456 2.9524,9.95215 2.333,2.69758 5.8561,4.32643 9.4225,4.35636 2.7176,0.0228 5.44,-0.83124 8.1211,-0.38672 1.4667,0.24317 2.8663,0.87934 4.0139,1.82444 1.1477,0.94509 2.0404,2.19677 2.5603,3.58959"
       id="path178-3"
       inkscape:path-effect="#path-effect178-7"
       inkscape:original-d="m 1162.0827,425.0013 c 4.125,5.02732 8.6367,9.66791 12.3749,14.30851 3.7383,4.6406 5.1563,-0.25781 8.1211,-0.38672 2.9648,-0.1289 4.3828,3.60936 6.5742,5.41403"
       transform="matrix(1.6039685,-0.49742654,0.49742654,1.6039685,-1292.9099,18.242702)" /><path
       style="fill:none;stroke:#f9f9f9;stroke-width:1px;stroke-linecap:butt;stroke-linejoin:miter;stroke-opacity:1"
       d="m 1162.0827,418.42712 c 5.1521,-0.58783 10.0601,-3.11195 13.5351,-6.96089 1.0564,-1.17004 1.9828,-2.45456 3.0716,-3.5945 1.0887,-1.13994 2.3764,-2.15021 3.8893,-2.59296 1.9184,-0.56143 4.0248,-0.14408 5.8007,0.77343 2.0539,1.06117 3.7575,2.78744 4.7914,4.85523 1.0339,2.06779 1.3928,4.46641 1.0094,6.74626"
       id="path179-5"
       inkscape:path-effect="#path-effect179-5"
       inkscape:original-d="m 1162.0827,418.42712 c 4.3828,-2.19139 9.1523,-4.7695 13.5351,-6.96089 4.3828,-2.19139 4.7695,-3.99607 6.9609,-6.18746 2.1914,-2.1914 3.3515,0.38671 5.8007,0.77343 2.4492,0.38672 4.125,7.86323 5.8008,11.60149"
       transform="matrix(1.6039685,-0.49742654,0.49742654,1.6039685,-1285.4992,19.460933)" /><path
       style="fill:none;stroke:#f9f9f9;stroke-width:1px;stroke-linecap:butt;stroke-linejoin:miter;stroke-opacity:1"
       d="m 1168.6569,437.76294 c -0.029,2.55106 0.9624,5.09947 2.707,6.9609 2.1412,2.28456 5.3993,3.46929 8.5078,3.09373"
       id="path181-2"
       inkscape:path-effect="#path-effect181-5"
       inkscape:original-d="m 1168.6569,437.76294 c 0.9023,1.80468 1.418,4.38279 2.707,6.9609 1.2891,2.57811 5.9297,2.06249 8.5078,3.09373"
       transform="matrix(1.6039685,-0.49742654,0.49742654,1.6039685,-1292.9099,18.242702)" /><path
       style="fill:none;stroke:#f9f9f9;stroke-width:1px;stroke-linecap:butt;stroke-linejoin:miter;stroke-opacity:1"
       d="m 1176.0045,411.07951 c 0.9646,2.63205 2.9333,4.88197 5.414,6.18747 1.285,0.67624 2.6841,1.10092 4.0359,1.63132 1.3517,0.5304 2.6909,1.19025 3.6985,2.23584 1.1625,1.20635 1.8021,2.87825 1.8389,4.55315 0.037,1.6749 -0.5106,3.34239 -1.4522,4.72804 -1.4071,2.07069 -3.7096,3.50973 -6.1875,3.86717"
       id="path182-2"
       inkscape:path-effect="#path-effect182-4"
       inkscape:original-d="m 1176.0045,411.07951 c 1.2891,2.06249 3.3516,4.12498 5.414,6.18747 2.0625,2.06248 5.1563,2.5781 7.7344,3.86716 2.5781,1.28905 0.3867,6.31637 0.3867,9.28119 0,2.96483 -4.2539,2.44921 -6.1875,3.86717"
       transform="matrix(1.6039685,-0.49742654,0.49742654,1.6039685,-1285.4992,19.460933)" /></g><path
     style="fill:#fea680;stroke-width:0.437698"
     d="m 490.07385,293.1035 v 182.22654 c 46.8101,-0.46266 87.84782,-36.7229 111.1395,-91.11305 -23.29168,-54.39015 -64.3294,-90.65041 -111.1395,-91.11349 z"
     id="path1-2" /><path
     style="fill:#ffc1a6;stroke-width:0.437698"
     d="m 490.07385,293.1035 c 38.51571,0.56638 72.26882,36.7973 91.43826,91.11349 -19.16944,54.31618 -52.92255,90.5471 -91.43826,91.11348 -0.30551,0.005 -0.60578,0.005 -0.91129,0.005 -47.18957,0 -88.60635,-36.37362 -112.05079,-91.1183 23.44444,-54.74469 64.86122,-91.11831 112.05079,-91.11831 0.30551,0 0.60578,0 0.91129,0.005 z"
     id="path2-2" /><path
     style="fill:#ffffff;stroke-width:0.437698"
     d="m 489.16256,322.65077 c -47.19088,0 -88.60766,24.57676 -112.05079,61.56622 23.44313,36.98944 64.85991,61.56622 112.05079,61.56622 47.1909,0 88.60766,-24.57678 112.05079,-61.56622 -23.44313,-36.98946 -64.85989,-61.56622 -112.05079,-61.56622 z"
     id="path3-7" /><path
     style="fill:#5eb8e7;stroke-width:0.437698;fill-opacity:1"
     d="m 489.76834,322.65559 v 123.1228 c 33.72378,-0.31996 60.96044,-27.75884 60.96044,-61.5614 0,-33.80258 -27.23666,-61.24146 -60.96044,-61.5614 z"
     id="path4-1" /><path
     style="fill:#91ceeb;stroke-width:0.437698;fill-opacity:1"
     d="m 489.76834,322.65559 c 25.56246,0.4285 46.18462,27.82317 46.18462,61.5614 0,33.73823 -20.62216,61.1329 -46.18462,61.5614 -0.20178,0.005 -0.404,0.005 -0.60578,0.005 -34.00435,0 -61.56622,-27.56187 -61.56622,-61.56622 0,-34.00436 27.56187,-61.56622 61.56622,-61.56622 0.20178,0 0.404,0 0.60578,0.005 z"
     id="path5-5" /><path
     d="m 489.16256,352.20241 v 64.02915 c 17.6817,0 32.01457,-14.33287 32.01457,-32.01457 0,-17.6817 -14.33287,-32.01458 -32.01457,-32.01458 z"
     id="path6-2"
     style="stroke-width:0.437698" /><path
     style="fill:#000000;stroke-width:0.437698"
     d="m 486.71348,352.06891 c -12.23936,0 -22.16373,14.33288 -22.16373,32.01459 0,17.6817 9.92437,32.01457 22.16373,32.01457 17.68171,0 32.01457,-14.33287 32.01457,-32.01457 0,-17.68171 -14.33286,-32.01459 -32.01457,-32.01459 z"
     id="path7-1-1" /><path
     style="fill:#4d4d4d;stroke-width:0.437698"
     d="m 489.16256,352.20241 c 12.23936,0 22.16374,14.33288 22.16374,32.01458 0,17.6817 -9.92438,32.01457 -22.16374,32.01457 -17.6817,0 -32.01457,-14.33287 -32.01457,-32.01457 0,-17.6817 14.33287,-32.01458 32.01457,-32.01458 z"
     id="path7-1" /><g
     id="g7"><path
       style="fill:#5eb8e7;fill-opacity:1;stroke-width:0.250743"
       d="m 853.98253,310.51536 c 0,35.45406 -28.73666,64.18972 -64.18922,64.18872 -35.45457,0.001 -64.19123,-28.73466 -64.19123,-64.18872 -0.002,-35.45407 28.73666,-64.19173 64.19123,-64.19173 35.45256,0 64.18922,28.73867 64.18922,64.19173 z"
       id="path1-9" /><path
       style="fill:#91ceeb;fill-opacity:1;stroke-width:0.250743"
       d="m 853.91031,313.36555 c -0.0298,-0.0343 -0.0597,-0.0687 -0.0923,-0.10079 -0.0559,-0.0554 -33.27686,-33.27737 -33.34707,-33.34683 -0.0557,-0.0552 -0.11785,-0.10105 -0.17377,-0.15571 -0.0705,-0.0707 -0.12988,-0.14894 -0.20084,-0.21915 -8.09148,-8.00723 -18.91029,-12.32678 -30.33515,-12.10286 -11.54195,0.19834 -22.40364,4.86115 -30.58288,13.12915 -8.2339,8.32292 -12.65876,19.22397 -12.46042,30.69472 0.20034,11.53994 4.73578,22.27275 12.77134,30.22156 0.0567,0.0559 0.11961,0.1028 0.17627,0.15822 0.0692,0.0694 0.12839,0.14718 0.19834,0.21639 0.0567,0.0559 32.71721,32.7004 32.77388,32.75607 0.005,0.005 0.009,0.0108 0.0145,0.0158 33.17907,-1.45431 59.80723,-28.08523 61.25803,-61.26656 z"
       id="path2-5" /><g
       id="g5"
       transform="matrix(0.25074306,0,0,0.25074306,725.60208,246.32363)">
	<polygon
   style="fill:#f4f6f9"
   points="427.788,253.013 427.788,253.017 "
   id="polygon2" />
	<path
   style="fill:#f4f6f9"
   d="m 255.876,84.217 c -46.032,0.791 -89.349,19.387 -121.969,52.361 -32.838,33.193 -50.485,76.668 -49.694,122.415 0.799,46.025 18.886,88.828 50.934,120.529 31.558,31.216 73.338,48.297 117.947,48.297 1.01,0 2.028,-0.007 3.042,-0.026 46.032,-0.799 89.346,-19.397 121.963,-52.371 32.842,-33.191 50.484,-76.661 49.691,-122.404 C 426.991,206.99 408.907,164.187 376.86,132.486 344.588,100.55 301.441,83.323 255.876,84.217 Z m 156.971,169.059 c 0.73,41.68 -15.386,81.329 -45.367,111.639 -29.862,30.179 -69.497,47.206 -111.606,47.936 -41.633,0.828 -80.833,-14.885 -110.218,-43.953 -29.261,-28.94 -45.773,-68.066 -46.502,-110.166 -0.725,-41.687 15.389,-81.34 45.375,-111.65 29.862,-30.179 69.497,-47.202 111.606,-47.924 0.933,-0.018 1.868,-0.026 2.798,-0.026 40.641,0 78.691,15.553 107.42,43.971 29.253,28.943 45.765,68.07 46.495,110.17 z"
   id="path3-6" />
	<path
   style="fill:#f4f6f9"
   d="m 256,285.885 c 4.126,0 7.47,-3.345 7.47,-7.47 V 158.892 c 0,-4.126 -3.345,-7.47 -7.47,-7.47 -4.126,0 -7.47,3.345 -7.47,7.47 v 119.522 c 0,4.126 3.344,7.471 7.47,7.471 z"
   id="path4-2" />
	<path
   style="fill:#f4f6f9"
   d="m 256.007,315.765 h -0.27 c -8.241,0 -14.821,6.954 -14.675,15.195 0.139,8.17 6.798,14.686 14.93,14.686 h 0.27 c 8.241,0 14.821,-6.954 14.675,-15.195 -0.146,-8.17 -6.797,-14.686 -14.93,-14.686 z"
   id="path5-8" />
</g></g><path
     d="M 1438.1457,142.30394 H 1273.144 v 41.442 h 165.0017 z"
     fill="#eb908b"
     id="path160"
     style="stroke-width:1.64479;fill:#8f84ba;fill-opacity:1" /><path
     d="m 1300.6097,368.4636 h -69.8674 v 23.58089 h 69.8674 z"
     fill="#eb908b"
     id="path160-1"
     style="stroke-width:0.807353;fill:#8f84ba;fill-opacity:1" /><path
     d="m 1344.7002,286.38176 h -50.123 v 3.23813 h 50.123 z"
     fill="#ffffff"
     id="path157-4"
     style="fill:#cfcdc9;fill-opacity:1;stroke-width:0.451812" /><path
     d="m 1344.7002,296.35888 h -50.123 v 3.23813 h 50.123 z"
     fill="#ffffff"
     id="path157-4-7"
     style="fill:#cfcdc9;fill-opacity:1;stroke-width:0.451812" /><path
     d="m 1324.8903,306.33601 h -30.3131 v 3.23813 h 30.3131 z"
     fill="#ffffff"
     id="path157-4-7-4"
     style="fill:#cfcdc9;fill-opacity:1;stroke-width:0.351362" /><path
     fill-rule="evenodd"
     clip-rule="evenodd"
     d="m 686.68733,210.81055 c 1.39265,0.26599 2.71181,0.73154 3.9271,1.36592 0.54063,0.28222 1.06063,0.59776 1.55732,0.94418 1.3841,0.96493 2.58767,2.1685 3.5526,3.55248 0.3463,0.49681 0.66196,1.01681 0.94406,1.55731 0.63449,1.21529 1.09993,2.53458 1.36591,3.92723 0.0122,0.0575 0.022,0.1151 0.0317,0.17284 0.094,0.5233 0.84396,0.5233 0.93734,0 0.0122,-0.0577 0.0208,-0.11535 0.0317,-0.17284 0.2661,-1.39265 0.73154,-2.71194 1.36591,-3.92723 0.28222,-0.5405 0.59788,-1.0605 0.94418,-1.55731 0.96493,-1.38398 2.1685,-2.58755 3.55261,-3.55248 0.49668,-0.34642 1.01668,-0.66196 1.55719,-0.94418 1.21541,-0.63438 2.53457,-1.09993 3.92722,-1.36592 0.0574,-0.011 0.11474,-0.0216 0.17285,-0.032 0.52329,-0.0933 0.52329,-0.84396 0,-0.93722 -0.0574,-0.01 -0.11475,-0.021 -0.17285,-0.032 -1.39265,-0.26598 -2.71181,-0.73154 -3.92722,-1.36592 -0.54051,-0.28221 -1.06051,-0.59775 -1.55719,-0.94417 -1.38411,-0.96493 -2.58768,-2.1685 -3.55261,-3.55251 -0.3463,-0.49675 -0.66196,-1.01673 -0.94418,-1.55728 -0.63437,-1.21531 -1.09981,-2.53455 -1.36591,-3.92717 -0.0122,-0.0575 -0.022,-0.11511 -0.0317,-0.17289 -0.0928,-0.52329 -0.84396,-0.52329 -0.93734,0 -0.0122,0.0577 -0.0208,0.11535 -0.0317,0.17289 -0.26598,1.39262 -0.73142,2.71186 -1.36591,3.92716 -0.2821,0.54056 -0.59776,1.06054 -0.94406,1.55729 -0.96493,1.38401 -2.1685,2.58758 -3.5526,3.55251 -0.49669,0.34642 -1.01669,0.66196 -1.55732,0.94417 -1.21529,0.63438 -2.53445,1.09994 -3.9271,1.36592 -0.0574,0.011 -0.11474,0.0216 -0.17297,0.032 -0.52317,0.0933 -0.52317,0.84396 0,0.93722 0.0574,0.011 0.11597,0.021 0.17297,0.032 z m -54.57731,8.61773 c -1.15804,-0.42809 -2.36137,-0.76487 -3.60143,-1.0018 -0.0915,-0.0173 -0.18237,-0.0342 -0.2738,-0.0505 -0.82858,-0.14783 -0.82858,-1.33626 0,-1.48408 0.0915,-0.0164 0.18274,-0.0332 0.2738,-0.0505 1.24006,-0.23693 2.44339,-0.57371 3.60143,-1.0018 0.69296,-0.25621 1.36982,-0.54502 2.02848,-0.86483 4.56136,-2.21416 8.25544,-5.90823 10.46971,-10.46971 0.31969,-0.65862 0.60862,-1.33537 0.86471,-2.02839 0.42809,-1.158 0.76487,-2.36136 1.0018,-3.60148 0.0171,-0.0911 0.0342,-0.18229 0.05,-0.27374 0.14782,-0.82852 1.33626,-0.82852 1.48408,0 0.0159,0.0914 0.033,0.18269 0.05,0.27374 0.23693,1.24012 0.5737,2.44348 1.00179,3.60148 0.25622,0.69301 0.54502,1.36977 0.86484,2.02839 2.21415,4.56148 5.90822,8.25555 10.4697,10.46971 0.65867,0.31981 1.3354,0.60862 2.02837,0.86483 1.15803,0.42809 2.36136,0.76487 3.60155,1.0018 0.0915,0.0173 0.18224,0.0342 0.27367,0.0505 0.82858,0.14782 0.82858,1.33625 0,1.48408 -0.0916,0.0163 -0.18261,0.0332 -0.27367,0.0505 -1.24019,0.23693 -2.44352,0.57371 -3.60155,1.0018 -0.69297,0.25621 -1.3697,0.54502 -2.02837,0.86483 -4.56148,2.21415 -8.25555,5.90823 -10.4697,10.4697 -0.31982,0.65867 -0.60862,1.3354 -0.86484,2.02837 -0.42809,1.15804 -0.76486,2.36136 -1.00179,3.60155 -0.0171,0.0909 -0.0342,0.18225 -0.05,0.27367 -0.14782,0.82859 -1.33626,0.82859 -1.48408,0 -0.0159,-0.0914 -0.033,-0.18273 -0.05,-0.27367 -0.23693,-1.24019 -0.57371,-2.44351 -1.0018,-3.60155 -0.25609,-0.69297 -0.54502,-1.3697 -0.86471,-2.02837 -2.21427,-4.56147 -5.90835,-8.25555 -10.46971,-10.4697 -0.65866,-0.31981 -1.33552,-0.60862 -2.02848,-0.86483 z m 16.69933,35.54421 c -0.80991,-0.21826 -1.63105,-0.40978 -2.46256,-0.57359 -0.13,-0.0255 -0.26012,-0.0504 -0.39049,-0.0747 l -0.0391,-0.007 -0.0537,-0.01 c -0.0818,-0.015 -0.1726,-0.0312 -0.35326,-0.0635 l -0.0635,-0.011 c -1.32502,-0.25073 -1.32502,-2.14812 0,-2.39884 l 0.0635,-0.011 c 0.18066,-0.0322 0.27099,-0.0485 0.35326,-0.0635 l 0.0537,-0.01 0.0391,-0.007 c 0.13037,-0.0243 0.26049,-0.0492 0.39037,-0.0747 0.83151,-0.16382 1.65277,-0.35534 2.46268,-0.57359 0.69174,-0.1864 1.37531,-0.39244 2.05009,-0.61729 10.91707,-3.63915 19.5077,-12.22977 23.14684,-23.14684 0.22485,-0.67478 0.4309,-1.35835 0.61729,-2.05022 0.21825,-0.80978 0.40978,-1.63104 0.57359,-2.46255 0.0256,-0.12988 0.0501,-0.26 0.0745,-0.39037 l 0.0122,-0.0396 0.0122,-0.0535 c 0.0146,-0.0812 0.0305,-0.17029 0.0623,-0.34631 v -0.007 l 0.0122,-0.0631 c 0.25072,-1.32502 2.14812,-1.32502 2.39884,0 l 0.0122,0.0631 c 0.0317,0.18066 0.0488,0.27099 0.0635,0.35326 l 0.0122,0.0535 0.0122,0.0395 c 0.0244,0.13037 0.0488,0.26049 0.0745,0.39037 0.16381,0.83151 0.35534,1.65277 0.57359,2.46255 0.18639,0.69187 0.39244,1.37544 0.61729,2.05022 3.63914,10.91708 12.22977,19.5077 23.14684,23.14685 0.67478,0.22484 1.35835,0.43089 2.05022,0.61728 0.80978,0.21826 1.63104,0.40978 2.46255,0.57359 0.12988,0.0255 0.26,0.0504 0.39037,0.0747 l 0.0391,0.007 0.0537,0.01 0.0842,0.0154 0.26867,0.0481 0.0635,0.011 c 1.32503,0.25073 1.32503,2.14812 0,2.39884 l -0.0635,0.011 -0.20629,0.0368 -0.14697,0.0266 -0.0537,0.01 -0.0391,0.007 c -0.13036,0.0243 -0.26049,0.0492 -0.39036,0.0747 -0.83152,0.16381 -1.65277,0.35533 -2.46256,0.57359 -0.69187,0.18639 -1.37544,0.39244 -2.05022,0.61728 -10.91707,3.63915 -19.50769,12.22977 -23.14684,23.14685 -0.22485,0.67478 -0.43089,1.35835 -0.61729,2.05009 -0.21825,0.80991 -0.40977,1.63117 -0.57358,2.46268 -0.0256,0.12988 -0.05,0.26 -0.0745,0.39037 l -0.0122,0.0396 -0.0122,0.0535 c -0.0146,0.0812 -0.0305,0.17028 -0.0622,0.3463 l -0.0122,0.0701 c -0.25072,1.32502 -2.14811,1.32502 -2.39883,0 l -0.0122,-0.0631 c -0.0317,-0.18029 -0.0488,-0.27111 -0.0635,-0.35326 l -0.0122,-0.0535 -0.0122,-0.0396 c -0.0244,-0.13037 -0.0488,-0.26049 -0.0745,-0.39037 -0.16381,-0.83151 -0.35533,-1.65277 -0.57358,-2.46268 -0.1864,-0.69174 -0.39245,-1.37531 -0.61729,-2.05009 -3.63915,-10.91708 -12.22977,-19.5077 -23.14685,-23.14685 -0.67478,-0.22484 -1.35834,-0.43089 -2.05009,-0.61728 z"
     fill="#000000"
     id="path1-7"
     style="stroke-width:1.22066;fill:#5eb8e7;fill-opacity:1" /><path
     d="M 1468.4118,791.804 H 38.541848 v 14.271 H 1468.4118 Z"
     fill="#aecbc7"
     id="path52"
     style="stroke-width:1.10975;fill:#aaa9a9;fill-opacity:1" /></svg>
